<svg width="50" height="50" viewBox="0 0 50 50" fill="none" xmlns="http://www.w3.org/2000/svg">
<path d="M17.1875 24.2188H35.9375V39.8438H17.1875V24.2188Z" fill="#EA9D2D"/>
<path d="M12.5 24.2188H17.1875V39.8438H12.5V24.2188Z" fill="#D18D28"/>
<path d="M38.2813 33.5617L38.2022 33.4825C36.7727 32.0531 34.834 31.2501 32.8125 31.2501C30.791 31.2501 28.8523 32.0531 27.4229 33.4825L27.3438 33.5617H19.5313C18.9097 33.5617 18.3135 33.8087 17.874 34.2482C17.4345 34.6877 17.1875 35.2839 17.1875 35.9055C17.1875 36.0998 17.2116 36.2933 17.2592 36.4816L9.39328 33.8597C9.0343 33.74 8.65202 33.7074 8.27796 33.7645C7.90389 33.8216 7.54874 33.9667 7.24177 34.188C6.93481 34.4092 6.68481 34.7003 6.51238 35.0371C6.33995 35.3739 6.25003 35.7469 6.25002 36.1253V36.1767C6.24833 36.5804 6.34885 36.9781 6.54223 37.3326C6.7356 37.687 7.01555 37.9868 7.35598 38.2039L20.917 46.8336C21.712 47.3395 22.6029 47.6756 23.5339 47.8208C24.465 47.966 25.4159 47.9171 26.3272 47.6773L38.2813 44.5314H43.75V33.5617H38.2813Z" fill="#FDC9A6"/>
<path d="M26.5625 37.4678H18.75C18.3358 37.4672 17.9387 37.3024 17.6457 37.0095C17.3528 36.7166 17.188 36.3195 17.1875 35.9053C17.1877 36.0998 17.2116 36.2937 17.2588 36.4824L15.625 35.9375C15.6345 36.7604 15.9678 37.5464 16.5527 38.1253C17.1376 38.7042 17.9271 39.0293 18.75 39.0303H26.5625C26.7697 39.0303 26.9684 38.948 27.1149 38.8014C27.2614 38.6549 27.3438 38.4562 27.3438 38.249C27.3438 38.0418 27.2614 37.8431 27.1149 37.6966C26.9684 37.5501 26.7697 37.4678 26.5625 37.4678Z" fill="#FDC9A6"/>
<path d="M12.5 24.2188L10.1562 21.0938H14.8438L17.1875 24.2188H12.5Z" fill="#FBB540"/>
<path d="M35.9375 24.2188L38.2812 21.0938H33.5938L31.25 24.2188H35.9375Z" fill="#FBB540"/>
<path d="M32.8125 24.2188V13.2812L35.1562 15.625L39.8438 11.7188L36.1547 6.18506C35.5031 5.20781 34.5814 4.44115 33.5019 3.97852L29.6875 2.34375H20.3125L16.4981 3.97852C15.4185 4.44129 14.4968 5.20811 13.8453 6.18555L10.1562 11.7188L14.8438 15.625L17.1875 13.2812V24.2188H32.8125Z" fill="#0292C9"/>
<path d="M20.3125 2.34375H29.6875V3.90625C29.6875 5.14945 29.1936 6.34174 28.3146 7.22081C27.4355 8.09989 26.2432 8.59375 25 8.59375C23.7568 8.59375 22.5645 8.09989 21.6854 7.22081C20.8064 6.34174 20.3125 5.14945 20.3125 3.90625V2.34375Z" fill="#EAEAE8"/>
<path d="M23.4375 2.34375V3.90625C23.4375 4.32065 23.6021 4.71808 23.8951 5.0111C24.1882 5.30413 24.5856 5.46875 25 5.46875C25.4144 5.46875 25.8118 5.30413 26.1049 5.0111C26.3979 4.71808 26.5625 4.32065 26.5625 3.90625V2.34375H23.4375Z" fill="#026CA2"/>
<path d="M26.5624 19.5312C26.3849 19.5316 26.2126 19.4712 26.0741 19.3601L24.9999 18.5007L23.9257 19.3601C23.7639 19.4896 23.5573 19.5495 23.3513 19.5266C23.1453 19.5038 22.9568 19.4001 22.8273 19.2383C22.6978 19.0765 22.6379 18.8699 22.6607 18.6639C22.6836 18.4579 22.7873 18.2694 22.9491 18.1399L23.7489 17.5L23.0338 16.9278C22.6544 16.6244 22.352 16.2357 22.1511 15.7934C21.9502 15.351 21.8564 14.8676 21.8775 14.3822C21.8985 13.8968 22.0338 13.4233 22.2723 13C22.5107 12.5768 22.8457 12.2158 23.2499 11.9463L23.2868 11.9217C23.7937 11.5825 24.3899 11.4014 24.9998 11.4014C25.6097 11.4014 26.2059 11.5825 26.7128 11.9217L26.7489 11.9457C27.1532 12.2151 27.4882 12.5761 27.7268 12.9994C27.9653 13.4226 28.1006 13.8962 28.1217 14.3816C28.1428 14.867 28.0491 15.3505 27.8482 15.7928C27.6473 16.2352 27.3449 16.6239 26.9655 16.9274L26.2503 17.4997L27.0501 18.1396C27.1766 18.2407 27.2686 18.3786 27.3133 18.5342C27.358 18.6899 27.3533 18.8556 27.2997 19.0084C27.2461 19.1612 27.1464 19.2936 27.0143 19.3873C26.8822 19.4809 26.7243 19.5312 26.5624 19.5312ZM24.9999 12.9649C24.6985 12.965 24.404 13.0545 24.1535 13.2221L24.1166 13.2467C23.917 13.3799 23.7516 13.5583 23.6338 13.7674C23.5161 13.9765 23.4493 14.2104 23.439 14.4502C23.4286 14.6899 23.4749 14.9287 23.5742 15.1472C23.6735 15.3657 23.8229 15.5577 24.0102 15.7076L24.9999 16.4995L25.9896 15.7077C26.177 15.5578 26.3264 15.3657 26.4256 15.1472C26.5248 14.9287 26.5711 14.6899 26.5607 14.4502C26.5503 14.2104 26.4835 13.9765 26.3657 13.7674C26.248 13.5583 26.0825 13.3799 25.8829 13.2468L25.8468 13.2226C25.5962 13.0549 25.3015 12.9652 24.9999 12.9649Z" fill="#FBFDFF"/>
<path d="M32.8125 13.2812V10.9375L36.0938 14.8438L35.1562 15.625L32.8125 13.2812Z" fill="#026CA2"/>
<path d="M17.1875 13.2812V10.9375L13.6719 14.6484L14.8438 15.625L17.1875 13.2812Z" fill="#026CA2"/>
<path d="M27.3438 38.249C27.3438 38.4562 27.2614 38.6549 27.1149 38.8014C26.9684 38.948 26.7697 39.0303 26.5625 39.0303H18.75C17.9271 39.0293 17.1376 38.7042 16.5527 38.1253C15.9678 37.5464 15.6345 36.7604 15.625 35.9375L17.2588 36.4824C17.2116 36.2937 17.1877 36.0998 17.1875 35.9053C17.188 36.3195 17.3528 36.7166 17.6457 37.0095C17.9387 37.3024 18.3358 37.4672 18.75 37.4678H26.5625C26.7697 37.4678 26.9684 37.5501 27.1149 37.6966C27.2614 37.8431 27.3438 38.0418 27.3438 38.249Z" fill="#E6AF89"/>
<path d="M44.5312 14.0625C44.324 14.0625 44.1253 13.9802 43.9788 13.8337C43.8323 13.6872 43.75 13.4885 43.75 13.2812V12.5C43.75 12.2928 43.8323 12.0941 43.9788 11.9476C44.1253 11.8011 44.324 11.7188 44.5312 11.7188C44.7385 11.7188 44.9372 11.8011 45.0837 11.9476C45.2302 12.0941 45.3125 12.2928 45.3125 12.5V13.2812C45.3125 13.4885 45.2302 13.6872 45.0837 13.8337C44.9372 13.9802 44.7385 14.0625 44.5312 14.0625Z" fill="#0296E5"/>
<path d="M44.5312 18.75C44.324 18.75 44.1253 18.6677 43.9788 18.5212C43.8323 18.3747 43.75 18.176 43.75 17.9688V17.1875C43.75 16.9803 43.8323 16.7816 43.9788 16.6351C44.1253 16.4886 44.324 16.4062 44.5312 16.4062C44.7385 16.4062 44.9372 16.4886 45.0837 16.6351C45.2302 16.7816 45.3125 16.9803 45.3125 17.1875V17.9688C45.3125 18.176 45.2302 18.3747 45.0837 18.5212C44.9372 18.6677 44.7385 18.75 44.5312 18.75Z" fill="#0296E5"/>
<path d="M42.1875 16.4062C41.9803 16.4062 41.7816 16.3239 41.6351 16.1774C41.4886 16.0309 41.4062 15.8322 41.4062 15.625V14.8438C41.4062 14.6365 41.4886 14.4378 41.6351 14.2913C41.7816 14.1448 41.9803 14.0625 42.1875 14.0625C42.3947 14.0625 42.5934 14.1448 42.7399 14.2913C42.8864 14.4378 42.9688 14.6365 42.9688 14.8438V15.625C42.9688 15.8322 42.8864 16.0309 42.7399 16.1774C42.5934 16.3239 42.3947 16.4062 42.1875 16.4062Z" fill="#0296E5"/>
<path d="M46.875 16.4062C46.6678 16.4062 46.4691 16.3239 46.3226 16.1774C46.1761 16.0309 46.0938 15.8322 46.0938 15.625V14.8438C46.0938 14.6365 46.1761 14.4378 46.3226 14.2913C46.4691 14.1448 46.6678 14.0625 46.875 14.0625C47.0822 14.0625 47.2809 14.1448 47.4274 14.2913C47.5739 14.4378 47.6562 14.6365 47.6562 14.8438V15.625C47.6562 15.8322 47.5739 16.0309 47.4274 16.1774C47.2809 16.3239 47.0822 16.4062 46.875 16.4062Z" fill="#0296E5"/>
<path d="M4.6875 19.5312C4.4803 19.5312 4.28159 19.4489 4.13507 19.3024C3.98856 19.1559 3.90625 18.9572 3.90625 18.75V17.9688C3.90625 17.7615 3.98856 17.5628 4.13507 17.4163C4.28159 17.2698 4.4803 17.1875 4.6875 17.1875C4.8947 17.1875 5.09341 17.2698 5.23993 17.4163C5.38644 17.5628 5.46875 17.7615 5.46875 17.9688V18.75C5.46875 18.9572 5.38644 19.1559 5.23993 19.3024C5.09341 19.4489 4.8947 19.5312 4.6875 19.5312Z" fill="#0296E5"/>
<path d="M4.6875 24.2188C4.4803 24.2188 4.28159 24.1364 4.13507 23.9899C3.98856 23.8434 3.90625 23.6447 3.90625 23.4375V22.6562C3.90625 22.449 3.98856 22.2503 4.13507 22.1038C4.28159 21.9573 4.4803 21.875 4.6875 21.875C4.8947 21.875 5.09341 21.9573 5.23993 22.1038C5.38644 22.2503 5.46875 22.449 5.46875 22.6562V23.4375C5.46875 23.6447 5.38644 23.8434 5.23993 23.9899C5.09341 24.1364 4.8947 24.2188 4.6875 24.2188Z" fill="#0296E5"/>
<path d="M2.34375 21.875C2.13655 21.875 1.93784 21.7927 1.79132 21.6462C1.64481 21.4997 1.5625 21.301 1.5625 21.0938V20.3125C1.5625 20.1053 1.64481 19.9066 1.79132 19.7601C1.93784 19.6136 2.13655 19.5312 2.34375 19.5312C2.55095 19.5312 2.74966 19.6136 2.89618 19.7601C3.04269 19.9066 3.125 20.1053 3.125 20.3125V21.0938C3.125 21.301 3.04269 21.4997 2.89618 21.6462C2.74966 21.7927 2.55095 21.875 2.34375 21.875Z" fill="#0296E5"/>
<path d="M7.03125 21.875C6.82405 21.875 6.62534 21.7927 6.47882 21.6462C6.33231 21.4997 6.25 21.301 6.25 21.0938V20.3125C6.25 20.1053 6.33231 19.9066 6.47882 19.7601C6.62534 19.6136 6.82405 19.5312 7.03125 19.5312C7.23845 19.5312 7.43716 19.6136 7.58368 19.7601C7.73019 19.9066 7.8125 20.1053 7.8125 20.3125V21.0938C7.8125 21.301 7.73019 21.4997 7.58368 21.6462C7.43716 21.7927 7.23845 21.875 7.03125 21.875Z" fill="#0296E5"/>
<path d="M9.64027 33.1185C9.16385 32.9596 8.65651 32.9163 8.16005 32.992C7.66359 33.0677 7.19224 33.2604 6.78483 33.554C6.37743 33.8476 6.04564 34.2339 5.81681 34.6809C5.58798 35.128 5.46866 35.623 5.46869 36.1252V36.1766C5.46624 36.7119 5.59959 37.2391 5.85627 37.7089C6.11294 38.1787 6.48456 38.5757 6.93637 38.8629L20.498 47.4927C21.3842 48.0552 22.3769 48.4291 23.4141 48.5908C24.4512 48.7525 25.5106 48.6987 26.526 48.4327L38.3823 45.3125H43.7499C43.9571 45.3125 44.1559 45.2302 44.3024 45.0837C44.4489 44.9372 44.5312 44.7385 44.5312 44.5312V33.5616C44.5312 33.3544 44.4489 33.1557 44.3024 33.0092C44.1559 32.8627 43.9571 32.7804 43.7499 32.7804H38.6009C38.039 32.2462 37.4056 31.7928 36.7187 31.4332V24.4792L38.9062 21.5625C38.9932 21.4464 39.0463 21.3084 39.0593 21.1639C39.0723 21.0194 39.0448 20.8741 38.98 20.7444C38.9151 20.6146 38.8153 20.5055 38.6919 20.4292C38.5685 20.3529 38.4263 20.3125 38.2812 20.3125H33.5937V15.1674L34.6038 16.1774C34.7416 16.3153 34.926 16.3966 35.1208 16.4055C35.3155 16.4143 35.5065 16.35 35.6563 16.2252L40.3438 12.3189C40.4919 12.1955 40.5892 12.0217 40.6168 11.8309C40.6445 11.6401 40.6007 11.4458 40.4937 11.2854L36.8046 5.75195C36.0698 4.64796 35.029 3.7822 33.8096 3.26064L29.9956 1.62588C29.901 1.58516 20.0989 1.58516 20.0042 1.62588L16.1903 3.26045C14.9709 3.78205 13.9301 4.64789 13.1953 5.75195L9.50619 11.2854C9.39923 11.4458 9.35537 11.6401 9.38305 11.8309C9.41072 12.0217 9.50797 12.1955 9.65609 12.3189L14.3436 16.2252C14.4934 16.35 14.6844 16.4143 14.8791 16.4055C15.0739 16.3966 15.2583 16.3153 15.3961 16.1774L16.4062 15.1674V21.875L15.4687 20.625C15.3959 20.528 15.3016 20.4492 15.1931 20.395C15.0846 20.3407 14.965 20.3125 14.8437 20.3125H10.1562C10.0111 20.3125 9.86888 20.3529 9.74546 20.4292C9.62205 20.5055 9.52231 20.6146 9.45742 20.7444C9.39254 20.8741 9.36507 21.0194 9.3781 21.1639C9.39113 21.3084 9.44414 21.4464 9.53119 21.5625L11.7187 24.4792V33.8113L9.64027 33.1185ZM37.7288 34.1141C37.8013 34.1866 37.8874 34.2442 37.9822 34.2834C38.077 34.3227 38.1786 34.3429 38.2812 34.3429H42.9687V43.75H38.2812C38.2141 43.75 38.1472 43.7586 38.0824 43.7758L26.1279 46.9217C25.3207 47.133 24.4787 47.1757 23.6542 47.0472C22.8298 46.9186 22.0408 46.6216 21.3363 46.1745L7.77524 37.5447C7.5457 37.3981 7.35706 37.1958 7.22694 36.9565C7.09683 36.7172 7.02948 36.4489 7.03119 36.1766V36.1252C7.03168 35.6999 7.20034 35.2921 7.50038 34.9907C7.80043 34.6894 8.20749 34.5189 8.63275 34.5165C8.80724 34.5168 8.98054 34.5452 9.14594 34.6008L12.266 35.6409L12.2682 35.6416L16.6442 37.1005C16.8811 37.6713 17.2817 38.1591 17.7955 38.5026C18.3092 38.846 18.9132 39.0296 19.5312 39.0303H27.3437C27.5509 39.0303 27.7496 38.948 27.8961 38.8014C28.0426 38.6549 28.1249 38.4562 28.1249 38.249C28.1249 38.0418 28.0426 37.8431 27.8961 37.6966C27.7496 37.5501 27.5509 37.4678 27.3437 37.4678H19.5312C19.174 37.4673 18.8277 37.3445 18.5499 37.12C18.2721 36.8954 18.0794 36.5826 18.004 36.2334C18.0025 36.2263 18.0007 36.2192 17.9993 36.2121C17.9904 36.1676 17.9836 36.1224 17.9786 36.0766C17.9776 36.0668 17.9768 36.0576 17.9759 36.0481C17.9716 36.0011 17.9687 35.9535 17.9687 35.9054C17.9692 35.4911 18.1339 35.094 18.4269 34.801C18.7198 34.5081 19.1169 34.3433 19.5312 34.3429H27.3437C27.4463 34.3429 27.5479 34.3227 27.6427 34.2834C27.7375 34.2442 27.8236 34.1866 27.8961 34.1141L27.9753 34.0349C29.2592 32.7539 30.9988 32.0345 32.8124 32.0345C34.6261 32.0345 36.3657 32.7539 37.6496 34.0349L37.7288 34.1141ZM27.024 32.7804H19.5312C18.9824 32.7798 18.4433 32.9247 17.9687 33.2003V25H35.1562V30.804C33.7461 30.395 32.2535 30.3622 30.8268 30.7089C29.4001 31.0556 28.089 31.7698 27.024 32.7804ZM33.9843 21.875H36.7187L35.5468 23.4375H32.8124L33.9843 21.875ZM25.7812 3.125V3.90625C25.7812 4.11345 25.6989 4.31216 25.5524 4.45868C25.4059 4.60519 25.2071 4.6875 24.9999 4.6875C24.7927 4.6875 24.594 4.60519 24.4475 4.45868C24.301 4.31216 24.2187 4.11345 24.2187 3.90625V3.125H25.7812ZM22.6562 3.125V3.90625C22.6562 4.52785 22.9031 5.12399 23.3427 5.56353C23.7822 6.00307 24.3783 6.25 24.9999 6.25C25.6215 6.25 26.2177 6.00307 26.6572 5.56353C27.0968 5.12399 27.3437 4.52785 27.3437 3.90625V3.125H28.9062V3.90625C28.9062 4.94225 28.4946 5.93582 27.7621 6.66839C27.0295 7.40095 26.0359 7.8125 24.9999 7.8125C23.9639 7.8125 22.9704 7.40095 22.2378 6.66839C21.5052 5.93582 21.0937 4.94225 21.0937 3.90625V3.125H22.6562ZM14.7957 14.5681L11.1956 11.568L14.4954 6.61846C15.0622 5.76678 15.8651 5.09889 16.8058 4.69658L19.5312 3.52852V3.90625C19.5312 5.35665 20.1074 6.74765 21.133 7.77324C22.1585 8.79883 23.5495 9.375 24.9999 9.375C26.4503 9.375 27.8413 8.79883 28.8669 7.77324C29.8925 6.74765 30.4687 5.35665 30.4687 3.90625V3.52852L33.1941 4.69658C34.1347 5.09889 34.9377 5.76678 35.5045 6.61846L38.8042 11.568L35.2041 14.5681L33.5937 12.9576V10.9375C33.5937 10.7303 33.5114 10.5316 33.3649 10.3851C33.2184 10.2386 33.0196 10.1562 32.8124 10.1562C32.6052 10.1562 32.4065 10.2386 32.26 10.3851C32.1135 10.5316 32.0312 10.7303 32.0312 10.9375V21.875L30.8593 23.4375H17.9687V10.9375C17.9687 10.7303 17.8864 10.5316 17.7399 10.3851C17.5934 10.2386 17.3946 10.1562 17.1874 10.1562C16.9802 10.1562 16.7815 10.2386 16.635 10.3851C16.4885 10.5316 16.4062 10.7303 16.4062 10.9375V12.9576L14.7957 14.5681ZM14.4531 21.875L15.6249 23.4375H12.8906L11.7187 21.875H14.4531ZM13.2812 25H16.4062V35.3741L13.2812 34.3322V25Z" fill="black"/>
<path d="M23.0342 16.9279L23.7494 17.5001L22.9493 18.14C22.7875 18.2695 22.6837 18.458 22.6609 18.664C22.6381 18.8699 22.698 19.0765 22.8275 19.2383C22.957 19.4001 23.1455 19.5039 23.3514 19.5267C23.5574 19.5495 23.764 19.4896 23.9258 19.3601L25 18.5007L26.0743 19.3601C26.1544 19.4242 26.2463 19.472 26.3449 19.5005C26.4434 19.5291 26.5467 19.538 26.6487 19.5267C26.7506 19.5154 26.8494 19.4841 26.9393 19.4346C27.0292 19.3852 27.1085 19.3185 27.1726 19.2383C27.2367 19.1582 27.2844 19.0663 27.313 18.9677C27.3416 18.8692 27.3505 18.7659 27.3392 18.664C27.3279 18.562 27.2966 18.4632 27.2471 18.3733C27.1976 18.2834 27.1309 18.2041 27.0508 18.14L26.251 17.5001L26.9663 16.9278C27.3456 16.6243 27.6481 16.2356 27.849 15.7932C28.0499 15.3508 28.1436 14.8673 28.1225 14.3819C28.1014 13.8966 27.966 13.423 27.7275 12.9998C27.489 12.5765 27.1539 12.2155 26.7497 11.9461L26.7135 11.922C26.2066 11.5828 25.6104 11.4017 25.0005 11.4017C24.3906 11.4017 23.7944 11.5828 23.2875 11.922L23.2506 11.9466C22.8464 12.2161 22.5115 12.5772 22.273 13.0004C22.0345 13.4237 21.8993 13.8972 21.8782 14.3826C21.8572 14.8679 21.9509 15.3514 22.1518 15.7937C22.3527 16.236 22.6551 16.6247 23.0345 16.9282L23.0342 16.9279ZM24.1166 13.2463L24.1536 13.2216C24.4041 13.0539 24.6988 12.9644 25.0002 12.9644C25.3017 12.9644 25.5964 13.0539 25.8469 13.2216L25.883 13.2458C26.0827 13.3789 26.2481 13.5573 26.3659 13.7664C26.4837 13.9755 26.5505 14.2094 26.5609 14.4492C26.5713 14.6889 26.525 14.9277 26.4257 15.1462C26.3265 15.3647 26.1772 15.5568 25.9898 15.7067L25 16.4996L24.0103 15.7078C23.8229 15.5579 23.6735 15.3659 23.5743 15.1474C23.475 14.9289 23.4287 14.6901 23.439 14.4503C23.4494 14.2106 23.5161 13.9766 23.6339 13.7675C23.7516 13.5584 23.917 13.38 24.1166 13.2468V13.2463Z" fill="black"/>
<path d="M44.5312 14.0625C44.7385 14.0625 44.9372 13.9802 45.0837 13.8337C45.2302 13.6872 45.3125 13.4885 45.3125 13.2812V12.5C45.3125 12.2928 45.2302 12.0941 45.0837 11.9476C44.9372 11.8011 44.7385 11.7188 44.5312 11.7188C44.324 11.7188 44.1253 11.8011 43.9788 11.9476C43.8323 12.0941 43.75 12.2928 43.75 12.5V13.2812C43.75 13.4885 43.8323 13.6872 43.9788 13.8337C44.1253 13.9802 44.324 14.0625 44.5312 14.0625Z" fill="black"/>
<path d="M44.5312 18.75C44.7385 18.75 44.9372 18.6677 45.0837 18.5212C45.2302 18.3747 45.3125 18.176 45.3125 17.9688V17.1875C45.3125 16.9803 45.2302 16.7816 45.0837 16.6351C44.9372 16.4886 44.7385 16.4062 44.5312 16.4062C44.324 16.4062 44.1253 16.4886 43.9788 16.6351C43.8323 16.7816 43.75 16.9803 43.75 17.1875V17.9688C43.75 18.176 43.8323 18.3747 43.9788 18.5212C44.1253 18.6677 44.324 18.75 44.5312 18.75Z" fill="black"/>
<path d="M42.1875 16.4062C42.3947 16.4062 42.5934 16.3239 42.7399 16.1774C42.8864 16.0309 42.9688 15.8322 42.9688 15.625V14.8438C42.9688 14.6365 42.8864 14.4378 42.7399 14.2913C42.5934 14.1448 42.3947 14.0625 42.1875 14.0625C41.9803 14.0625 41.7816 14.1448 41.6351 14.2913C41.4886 14.4378 41.4062 14.6365 41.4062 14.8438V15.625C41.4062 15.8322 41.4886 16.0309 41.6351 16.1774C41.7816 16.3239 41.9803 16.4062 42.1875 16.4062Z" fill="black"/>
<path d="M46.875 16.4062C47.0822 16.4062 47.2809 16.3239 47.4274 16.1774C47.5739 16.0309 47.6562 15.8322 47.6562 15.625V14.8438C47.6562 14.6365 47.5739 14.4378 47.4274 14.2913C47.2809 14.1448 47.0822 14.0625 46.875 14.0625C46.6678 14.0625 46.4691 14.1448 46.3226 14.2913C46.1761 14.4378 46.0938 14.6365 46.0938 14.8438V15.625C46.0938 15.8322 46.1761 16.0309 46.3226 16.1774C46.4691 16.3239 46.6678 16.4062 46.875 16.4062Z" fill="black"/>
<path d="M4.6875 19.5312C4.8947 19.5312 5.09341 19.4489 5.23993 19.3024C5.38644 19.1559 5.46875 18.9572 5.46875 18.75V17.9688C5.46875 17.7615 5.38644 17.5628 5.23993 17.4163C5.09341 17.2698 4.8947 17.1875 4.6875 17.1875C4.4803 17.1875 4.28159 17.2698 4.13507 17.4163C3.98856 17.5628 3.90625 17.7615 3.90625 17.9688V18.75C3.90625 18.9572 3.98856 19.1559 4.13507 19.3024C4.28159 19.4489 4.4803 19.5312 4.6875 19.5312Z" fill="black"/>
<path d="M4.6875 24.2188C4.8947 24.2188 5.09341 24.1364 5.23993 23.9899C5.38644 23.8434 5.46875 23.6447 5.46875 23.4375V22.6562C5.46875 22.449 5.38644 22.2503 5.23993 22.1038C5.09341 21.9573 4.8947 21.875 4.6875 21.875C4.4803 21.875 4.28159 21.9573 4.13507 22.1038C3.98856 22.2503 3.90625 22.449 3.90625 22.6562V23.4375C3.90625 23.6447 3.98856 23.8434 4.13507 23.9899C4.28159 24.1364 4.4803 24.2188 4.6875 24.2188Z" fill="black"/>
<path d="M2.34375 21.875C2.55095 21.875 2.74966 21.7927 2.89618 21.6462C3.04269 21.4997 3.125 21.301 3.125 21.0938V20.3125C3.125 20.1053 3.04269 19.9066 2.89618 19.7601C2.74966 19.6136 2.55095 19.5312 2.34375 19.5312C2.13655 19.5312 1.93784 19.6136 1.79132 19.7601C1.64481 19.9066 1.5625 20.1053 1.5625 20.3125V21.0938C1.5625 21.301 1.64481 21.4997 1.79132 21.6462C1.93784 21.7927 2.13655 21.875 2.34375 21.875Z" fill="black"/>
<path d="M7.03125 21.875C7.23845 21.875 7.43716 21.7927 7.58368 21.6462C7.73019 21.4997 7.8125 21.301 7.8125 21.0938V20.3125C7.8125 20.1053 7.73019 19.9066 7.58368 19.7601C7.43716 19.6136 7.23845 19.5312 7.03125 19.5312C6.82405 19.5312 6.62534 19.6136 6.47882 19.7601C6.33231 19.9066 6.25 20.1053 6.25 20.3125V21.0938C6.25 21.301 6.33231 21.4997 6.47882 21.6462C6.62534 21.7927 6.82405 21.875 7.03125 21.875Z" fill="black"/>
</svg>
