<svg width="50" height="50" viewBox="0 0 50 50" fill="none" xmlns="http://www.w3.org/2000/svg">
<path d="M7.34116 19.1566H24.5861V29.8748H7.34116V19.1566Z" fill="#9E9E9E"/>
<path d="M7.34116 19.1566H10.9544V29.8748H7.34116V19.1566Z" fill="#707070"/>
<path d="M7.34116 20.8364C8.68951 20.8364 9.78256 19.7434 9.78256 18.395C9.78256 17.0467 8.68951 15.9536 7.34116 15.9536C5.99281 15.9536 4.89975 17.0467 4.89975 18.395C4.89975 19.7434 5.99281 20.8364 7.34116 20.8364Z" fill="#F87023"/>
<path d="M24.5862 20.8364C25.9345 20.8364 27.0276 19.7434 27.0276 18.395C27.0276 17.0467 25.9345 15.9536 24.5862 15.9536C23.2378 15.9536 22.1447 17.0467 22.1447 18.395C22.1447 19.7434 23.2378 20.8364 24.5862 20.8364Z" fill="#F8AF23"/>
<path d="M29.1838 44.4945H3.17069V40.9679C3.17069 38.1736 4.28073 35.4938 6.2566 33.5179C8.23247 31.542 10.9123 30.432 13.7066 30.432H18.2205C19.6041 30.432 20.9741 30.7045 22.2524 31.234C23.5307 31.7635 24.6922 32.5396 25.6705 33.5179C26.6489 34.4963 27.425 35.6577 27.9544 36.936C28.4839 38.2143 28.7564 39.5843 28.7564 40.9679L29.1838 44.4945Z" fill="#F46275"/>
<path d="M17.3199 30.432H13.7066C10.9123 30.432 8.23247 31.542 6.2566 33.5179C4.28073 35.4938 3.17069 38.1736 3.17069 40.9679V44.4945H6.78397V40.9679C6.78397 38.1736 7.89401 35.4938 9.86988 33.5179C11.8457 31.542 14.5256 30.432 17.3199 30.432Z" fill="#F43075"/>
<path d="M18.6004 26.037C18.6004 24.5808 17.4199 23.4003 15.9637 23.4003C14.5074 23.4003 13.3269 24.5808 13.3269 26.037V31.1969C13.3269 32.6532 14.5074 33.8337 15.9637 33.8337C17.4199 33.8337 18.6004 32.6532 18.6004 31.1969V26.037Z" fill="#F8AF23"/>
<path d="M13.3269 26.0372V31.1972C13.3291 31.8345 13.5612 32.4496 13.9805 32.9296C14.3998 33.4096 14.9781 33.7222 15.6094 33.8101V23.4243C14.9781 23.5121 14.3998 23.8248 13.9805 24.3048C13.5612 24.7847 13.3291 25.3999 13.3269 26.0372Z" fill="#F87023"/>
<path d="M24.5861 15.8155C24.5861 11.0534 20.7257 7.19299 15.9636 7.19299C11.2016 7.19299 7.34116 11.0534 7.34116 15.8155V20.0696C7.34116 24.8316 11.2016 28.692 15.9636 28.692C20.7257 28.692 24.5861 24.8316 24.5861 20.0696V15.8155Z" fill="#F8AF23"/>
<path d="M10.9544 20.0696V15.8155C10.9609 13.8443 11.6401 11.9343 12.8796 10.4016C14.1191 8.86883 15.8446 7.8051 17.7709 7.38635C17.1772 7.25806 16.5716 7.19324 15.9642 7.19299C13.6793 7.19954 11.4899 8.11006 9.87423 9.72565C8.25853 11.3412 7.34786 13.5306 7.34116 15.8155V20.0696C7.34806 22.3542 8.25874 24.5432 9.87429 26.1587C11.4898 27.7741 13.679 28.6845 15.9636 28.6912C16.571 28.691 17.1766 28.6262 17.7703 28.4979C15.8443 28.079 14.1189 27.0154 12.8796 25.4828C11.6402 23.9502 10.9611 22.0405 10.9544 20.0696Z" fill="#F87023"/>
<path d="M13.3269 30.4386L15.9636 33.8744L13.1072 35.4125L11.9513 30.5775L13.3269 29.016V30.4386Z" fill="#63BCE7"/>
<path d="M18.6004 30.4386L15.9637 33.8744L18.8201 35.4125L19.976 30.5775L18.6004 29.016V30.4386Z" fill="#63BCE7"/>
<path d="M12.8353 11.819C12.8353 11.819 19.006 16.7 24.4457 14.2668C24.0773 12.2843 23.0283 10.4926 21.4796 9.20108C19.931 7.90957 17.9801 7.19934 15.9636 7.19299C13.6789 7.19969 11.4896 8.11028 9.87402 9.72585C8.25844 11.3414 7.34786 13.5307 7.34116 15.8155V15.9533C7.34116 15.9533 11.1328 16.1018 12.8353 11.819Z" fill="#9E9E9E"/>
<path d="M17.7699 7.3866C17.1763 7.25834 16.5708 7.19352 15.9636 7.19324C13.6789 7.19994 11.4897 8.11049 9.87409 9.72603C8.25852 11.3416 7.34791 13.5308 7.34116 15.8155V15.9534C8.72238 15.9208 10.0449 15.3885 11.0636 14.4552C11.3444 12.7406 12.1339 11.15 13.3297 9.88956C14.5255 8.62916 16.0724 7.75714 17.7699 7.3866Z" fill="#707070"/>
<path d="M30.1897 27.855L35.3374 29.7015L30.0309 44.4946H27.1177C25.8837 44.052 25.2427 41.6478 25.6848 40.4138L30.1897 27.855Z" fill="#F46275"/>
<path d="M35.337 29.7014L32.1357 28.553L26.4175 44.4946H30.0308L35.337 29.7014Z" fill="#F48875"/>
<path d="M34.8116 31.2155L29.6655 29.367L30.2102 27.8504L35.3563 29.6988L34.8116 31.2155Z" fill="#63BCE7"/>
<path d="M31.5955 30.0891L32.1403 28.5725L35.3408 29.7221L34.796 31.2387L31.5955 30.0891Z" fill="#63E2E7"/>
<path d="M34.6269 29.4468L38.3916 27.9819C38.4877 27.9445 38.5702 27.879 38.6284 27.7939C38.6866 27.7088 38.7177 27.6081 38.7177 27.505V27.1235C38.7177 26.9878 38.6638 26.8577 38.5679 26.7617C38.4719 26.6657 38.3417 26.6118 38.206 26.6118H31.7904C31.5691 26.6118 31.3536 26.6824 31.1752 26.8134C30.9968 26.9443 30.8649 27.1288 30.7986 27.3399L30.5916 27.9991L34.6269 29.4468Z" fill="#F8AF23"/>
<path d="M38.206 26.6118H34.5927C34.7284 26.6118 34.8586 26.6657 34.9546 26.7617C35.0505 26.8577 35.1044 26.9878 35.1044 27.1235V27.505C35.1044 27.6081 35.0733 27.7088 35.0151 27.7939C34.9569 27.879 34.8744 27.9445 34.7783 27.9819L32.747 28.7724L34.6271 29.4468L38.3917 27.9819C38.4878 27.9445 38.5704 27.879 38.6286 27.7939C38.6868 27.7088 38.7179 27.6081 38.7179 27.505V27.1235C38.7179 27.0563 38.7047 26.9898 38.6789 26.9277C38.6532 26.8656 38.6155 26.8091 38.568 26.7616C38.5204 26.7141 38.464 26.6764 38.4019 26.6507C38.3398 26.625 38.2732 26.6118 38.206 26.6118Z" fill="#F8D323"/>
<path d="M29.2814 16.6908H32.9609V24.6988H29.2814V16.6908Z" fill="#F46275"/>
<path d="M35.4429 13.9039H39.1224V24.6989H35.4429V13.9039Z" fill="#63BCE7"/>
<path d="M41.6045 11.1171H45.284V24.6989H41.6045V11.1171Z" fill="#F46275"/>
<path d="M37.2827 10.5806C39.3181 10.5806 40.9682 8.93049 40.9682 6.89502C40.9682 4.85955 39.3181 3.20947 37.2827 3.20947C35.2472 3.20947 33.5971 4.85955 33.5971 6.89502C33.5971 8.93049 35.2472 10.5806 37.2827 10.5806Z" fill="#F8AF23"/>
<path d="M16.5736 24.2736C16.4959 24.2736 16.4213 24.3045 16.3664 24.3594C16.3115 24.4144 16.2806 24.4889 16.2806 24.5666C16.2806 24.6443 16.3115 24.7188 16.3664 24.7737C16.4213 24.8287 16.4959 24.8595 16.5736 24.8595C16.866 24.8596 17.1483 24.7527 17.3674 24.5591C17.5865 24.3655 17.7274 24.0985 17.7634 23.8083C17.7994 23.5181 17.7281 23.2248 17.5629 22.9835C17.3977 22.7423 17.1501 22.5697 16.8665 22.4982V20.8363C16.8665 20.7586 16.8357 20.6841 16.7807 20.6291C16.7258 20.5742 16.6513 20.5433 16.5736 20.5433C16.4959 20.5433 16.4213 20.5742 16.3664 20.6291C16.3115 20.6841 16.2806 20.7586 16.2806 20.8363V22.756C16.2806 22.8337 16.3115 22.9082 16.3664 22.9632C16.4213 23.0181 16.4959 23.049 16.5736 23.049C16.5779 23.049 16.5818 23.048 16.5859 23.0478C16.7468 23.0518 16.8998 23.119 17.0117 23.2348C17.1235 23.3507 17.1853 23.5059 17.1837 23.6669C17.1821 23.8279 17.1172 23.9818 17.003 24.0954C16.8889 24.209 16.7346 24.273 16.5736 24.2738V24.2736Z" fill="#3F3679"/>
<path d="M14.0756 24.7908C14.0758 25.1549 14.1839 25.5108 14.3862 25.8135C14.5886 26.1162 14.8761 26.3521 15.2125 26.4915C15.5488 26.6309 15.919 26.6675 16.2761 26.5967C16.6333 26.5259 16.9614 26.3508 17.2191 26.0936C17.2471 26.0666 17.2694 26.0342 17.2848 25.9985C17.3001 25.9627 17.3082 25.9243 17.3085 25.8854C17.3089 25.8465 17.3015 25.8079 17.2867 25.7719C17.272 25.7359 17.2502 25.7032 17.2227 25.6757C17.1952 25.6482 17.1625 25.6264 17.1265 25.6117C17.0905 25.597 17.0519 25.5896 17.013 25.5899C16.9741 25.5902 16.9357 25.5983 16.8999 25.6137C16.8642 25.629 16.8319 25.6513 16.8049 25.6793C16.6293 25.855 16.4056 25.9747 16.162 26.0233C15.9184 26.0718 15.6659 26.047 15.4364 25.9519C15.207 25.8569 15.0109 25.6959 14.8729 25.4894C14.735 25.2828 14.6614 25.04 14.6615 24.7916C14.6615 24.7139 14.6306 24.6394 14.5757 24.5845C14.5207 24.5295 14.4462 24.4987 14.3685 24.4987C14.2908 24.4987 14.2163 24.5295 14.1614 24.5845C14.1064 24.6394 14.0756 24.7139 14.0756 24.7916V24.7908Z" fill="#3F3679"/>
<path d="M13.3779 18.6326C13.234 18.6327 13.0961 18.69 12.9944 18.7917C12.8927 18.8935 12.8356 19.0315 12.8355 19.1753V19.9371C12.8355 20.081 12.8927 20.219 12.9945 20.3208C13.0962 20.4226 13.2343 20.4797 13.3782 20.4797C13.5221 20.4797 13.6602 20.4226 13.7619 20.3208C13.8637 20.219 13.9209 20.081 13.9209 19.9371V19.1753C13.9208 19.0314 13.8636 18.8933 13.7618 18.7915C13.66 18.6897 13.5219 18.6326 13.3779 18.6326Z" fill="#3F3679"/>
<path d="M11.5039 17.9686C11.569 18.0111 11.6482 18.026 11.7243 18.01C11.8003 17.9941 11.8669 17.9485 11.9094 17.8835C12.011 17.7357 12.1415 17.6099 12.293 17.5138C12.4444 17.4177 12.6138 17.3531 12.7908 17.3241C13.0005 17.2882 13.2153 17.2957 13.422 17.3461C13.6287 17.3964 13.8229 17.4887 13.9926 17.6171C14.0236 17.6398 14.0589 17.6562 14.0962 17.6653C14.1336 17.6744 14.1724 17.676 14.2105 17.6701C14.2485 17.6642 14.285 17.6509 14.3178 17.6309C14.3507 17.6109 14.3793 17.5846 14.402 17.5535C14.4247 17.5224 14.4411 17.4872 14.4502 17.4498C14.4593 17.4124 14.461 17.3736 14.4551 17.3356C14.4491 17.2976 14.4358 17.2611 14.4158 17.2282C14.3958 17.1954 14.3695 17.1667 14.3385 17.144C14.1049 16.9682 13.8377 16.8422 13.5534 16.7739C13.2692 16.7056 12.9739 16.6964 12.6859 16.747C12.4305 16.7904 12.1866 16.8852 11.9689 17.0255C11.7511 17.1658 11.564 17.3488 11.4189 17.5634C11.3765 17.6284 11.3616 17.7076 11.3775 17.7836C11.3935 17.8596 11.4389 17.9261 11.5039 17.9686Z" fill="#3F3679"/>
<path d="M19.72 18.6326C19.5762 18.6327 19.4382 18.69 19.3365 18.7917C19.2349 18.8935 19.1777 19.0315 19.1777 19.1753V19.9371C19.1777 20.081 19.2348 20.2191 19.3366 20.3209C19.4384 20.4226 19.5765 20.4798 19.7204 20.4798C19.8644 20.4798 20.0024 20.4226 20.1042 20.3209C20.206 20.2191 20.2632 20.081 20.2632 19.9371V19.1753C20.263 19.0314 20.2058 18.8933 20.1039 18.7916C20.0021 18.6898 19.864 18.6326 19.72 18.6326Z" fill="#3F3679"/>
<path d="M17.5429 17.9687C17.608 18.0112 17.6872 18.0261 17.7633 18.0101C17.8393 17.9941 17.9059 17.9486 17.9484 17.8835C18.05 17.7357 18.1804 17.61 18.3319 17.5139C18.4833 17.4177 18.6526 17.3532 18.8296 17.3242C19.0393 17.2884 19.2542 17.2959 19.4609 17.3463C19.6676 17.3967 19.8618 17.4888 20.0316 17.6171C20.0626 17.6398 20.0979 17.6562 20.1352 17.6653C20.1726 17.6744 20.2114 17.6761 20.2495 17.6702C20.2875 17.6642 20.324 17.6509 20.3569 17.6309C20.3897 17.6109 20.4183 17.5846 20.441 17.5536C20.4638 17.5225 20.4801 17.4873 20.4892 17.4499C20.4983 17.4125 20.5 17.3737 20.4941 17.3357C20.4882 17.2976 20.4748 17.2611 20.4548 17.2283C20.4348 17.1954 20.4085 17.1668 20.3775 17.1441C20.1439 16.9682 19.8767 16.8422 19.5923 16.7739C19.308 16.7056 19.0127 16.6964 18.7247 16.747C18.4694 16.7906 18.2255 16.8853 18.0078 17.0257C17.7901 17.166 17.6031 17.3489 17.4579 17.5634C17.4155 17.6284 17.4006 17.7077 17.4166 17.7836C17.4325 17.8596 17.4779 17.9262 17.5429 17.9687Z" fill="#3F3679"/>
<path d="M37.2825 10.8734C38.0694 10.8735 38.8386 10.6402 39.4929 10.2031C40.1472 9.76593 40.6571 9.14462 40.9583 8.41768C41.2595 7.69074 41.3383 6.89082 41.1849 6.11906C41.0314 5.34731 40.6526 4.63839 40.0962 4.08194C39.5399 3.52549 38.8311 3.14651 38.0593 2.99292C37.2876 2.83932 36.4877 2.91801 35.7607 3.21904C35.0337 3.52007 34.4123 4.02992 33.975 4.68411C33.5378 5.3383 33.3043 6.10745 33.3042 6.89431C33.3052 7.9492 33.7246 8.96061 34.4705 9.7066C35.2163 10.4526 36.2276 10.8722 37.2825 10.8734ZM37.2825 3.50252C37.9535 3.50252 38.6094 3.70149 39.1674 4.07427C39.7253 4.44705 40.1601 4.9769 40.4169 5.59681C40.6736 6.21672 40.7408 6.89886 40.6099 7.55695C40.479 8.21505 40.1559 8.81955 39.6815 9.29401C39.207 9.76847 38.6025 10.0916 37.9444 10.2225C37.2863 10.3534 36.6042 10.2862 35.9842 10.0294C35.3643 9.77265 34.8345 9.33782 34.4617 8.77991C34.0889 8.222 33.89 7.56608 33.89 6.8951C33.8909 5.99563 34.2487 5.13328 34.8847 4.49726C35.5207 3.86125 36.3831 3.5035 37.2825 3.50252Z" fill="#3F3679"/>
<path d="M35.7749 7.79629C35.7261 7.79598 35.6777 7.80537 35.6325 7.82391C35.5874 7.84245 35.5463 7.86977 35.5118 7.90429C35.4773 7.93881 35.45 7.97985 35.4314 8.02501C35.4129 8.07017 35.4035 8.11857 35.4038 8.16739C35.403 8.21637 35.4124 8.26498 35.4314 8.31013C35.4504 8.35529 35.4786 8.396 35.5142 8.42969C35.548 8.46432 35.5885 8.49175 35.6332 8.51031C35.6779 8.52887 35.7259 8.53819 35.7743 8.5377H36.8945V9.4502C36.8937 9.49917 36.903 9.54776 36.922 9.59292C36.941 9.63807 36.9691 9.67879 37.0046 9.71251C37.0399 9.74769 37.0818 9.7754 37.1281 9.79396C37.1743 9.81252 37.2238 9.82155 37.2736 9.82051C37.322 9.82096 37.37 9.81162 37.4147 9.79306C37.4594 9.7745 37.4999 9.7471 37.5337 9.71251C37.5692 9.67878 37.5973 9.63806 37.6163 9.59291C37.6353 9.54776 37.6447 9.49917 37.6439 9.4502V8.54571H38.7724C38.822 8.54625 38.8711 8.53677 38.9169 8.51784C38.9627 8.49891 39.0043 8.47092 39.039 8.43555C39.0748 8.40237 39.1032 8.3621 39.1226 8.31731C39.142 8.27252 39.1518 8.22419 39.1515 8.1754V6.89258C39.1518 6.84379 39.142 6.79546 39.1226 6.75067C39.1032 6.70588 39.0748 6.66561 39.039 6.63243C39.0042 6.59707 38.9627 6.56909 38.9169 6.55017C38.8711 6.53124 38.8219 6.52175 38.7724 6.52227H36.1628V5.99336H38.7814C38.8815 5.9921 38.9772 5.95175 39.048 5.88093C39.1189 5.81011 39.1592 5.71441 39.1605 5.61426C39.1607 5.56548 39.1509 5.51717 39.1315 5.47239C39.1121 5.42761 39.0837 5.38733 39.048 5.35411C39.0132 5.31876 38.9717 5.29079 38.9259 5.27186C38.8801 5.25293 38.8309 5.24344 38.7814 5.24395H37.6441V4.34024C37.6449 4.29146 37.6358 4.24302 37.6172 4.19791C37.5986 4.1528 37.571 4.11197 37.5361 4.07793C37.5028 4.04326 37.4627 4.01578 37.4183 3.99721C37.374 3.97863 37.3263 3.96934 37.2782 3.96993C37.2283 3.96746 37.1783 3.97528 37.1315 3.99289C37.0847 4.0105 37.042 4.03754 37.006 4.07233C36.9701 4.10711 36.9416 4.14891 36.9225 4.19512C36.9033 4.24134 36.8938 4.291 36.8947 4.34102V5.24473H35.7837C35.7349 5.24442 35.6865 5.25381 35.6413 5.27235C35.5962 5.29088 35.5551 5.31821 35.5206 5.35273C35.4861 5.38725 35.4588 5.42828 35.4402 5.47345C35.4217 5.51861 35.4123 5.56701 35.4126 5.61583V6.89415C35.4113 6.94331 35.4202 6.9922 35.4388 7.03773C35.4574 7.08325 35.4853 7.12441 35.5206 7.1586C35.555 7.193 35.5959 7.2201 35.641 7.23829C35.6861 7.25648 35.7343 7.26538 35.7829 7.26446H38.3927V7.79786L35.7749 7.79629Z" fill="#3F3679"/>
<path d="M28.1987 12.0774L28.9885 11.2876V24.6985C28.9885 24.7762 29.0194 24.8507 29.0743 24.9057C29.1293 24.9606 29.2038 24.9915 29.2815 24.9915H46.8293C46.907 24.9915 46.9816 24.9606 47.0365 24.9057C47.0914 24.8507 47.1223 24.7762 47.1223 24.6985C47.1223 24.6208 47.0914 24.5463 47.0365 24.4914C46.9816 24.4364 46.907 24.4056 46.8293 24.4056H45.5768V11.1167C45.5768 11.039 45.5459 10.9645 45.491 10.9095C45.436 10.8546 45.3615 10.8237 45.2838 10.8237H41.6045C41.5268 10.8237 41.4523 10.8546 41.3974 10.9095C41.3424 10.9645 41.3116 11.039 41.3116 11.1167V24.4056H39.4155V13.9036C39.4155 13.8259 39.3846 13.7514 39.3297 13.6964C39.2747 13.6415 39.2002 13.6106 39.1225 13.6106H35.443C35.3653 13.6106 35.2908 13.6415 35.2358 13.6964C35.1809 13.7514 35.15 13.8259 35.15 13.9036V24.4056H33.2539V16.6907C33.2539 16.613 33.2231 16.5385 33.1681 16.4835C33.1132 16.4286 33.0387 16.3977 32.961 16.3977H29.5744V11.2876L30.3641 12.0774C30.3911 12.1054 30.4234 12.1277 30.4592 12.1431C30.4949 12.1584 30.5334 12.1665 30.5723 12.1669C30.6112 12.1672 30.6498 12.1598 30.6858 12.1451C30.7218 12.1303 30.7545 12.1086 30.782 12.0811C30.8095 12.0536 30.8312 12.0208 30.846 11.9848C30.8607 11.9488 30.8681 11.9103 30.8678 11.8714C30.8674 11.8325 30.8594 11.794 30.844 11.7583C30.8287 11.7225 30.8063 11.6902 30.7784 11.6632L29.4893 10.3741C29.4343 10.3192 29.3598 10.2883 29.2822 10.2883C29.2045 10.2883 29.13 10.3192 29.075 10.3741L27.786 11.6632C27.7326 11.7184 27.7031 11.7924 27.7037 11.8692C27.7044 11.9461 27.7352 12.0195 27.7895 12.0739C27.8439 12.1282 27.9173 12.159 27.9942 12.1597C28.071 12.1603 28.145 12.1308 28.2002 12.0774H28.1987ZM41.8973 11.4097H44.9907V24.4056H41.8975L41.8973 11.4097ZM35.7358 14.1968H38.8293V24.4057H35.736L35.7358 14.1968ZM32.668 16.9835V24.4054H29.5744V16.9835H32.668Z" fill="#3F3679"/>
<path d="M5.05662 46.4969H1.44334C1.36564 46.4969 1.29112 46.5278 1.23618 46.5828C1.18123 46.6377 1.15037 46.7122 1.15037 46.7899C1.15037 46.8676 1.18123 46.9421 1.23618 46.9971C1.29112 47.052 1.36564 47.0829 1.44334 47.0829H5.05662C5.13432 47.0829 5.20884 47.052 5.26378 46.9971C5.31872 46.9421 5.34959 46.8676 5.34959 46.7899C5.34959 46.7122 5.31872 46.6377 5.26378 46.5828C5.20884 46.5278 5.13432 46.4969 5.05662 46.4969Z" fill="#3F3679"/>
<path d="M48.5567 46.4969H44.9434C44.8657 46.4969 44.7912 46.5278 44.7362 46.5828C44.6813 46.6377 44.6504 46.7122 44.6504 46.7899C44.6504 46.8676 44.6813 46.9421 44.7362 46.9971C44.7912 47.052 44.8657 47.0829 44.9434 47.0829H48.5567C48.6344 47.0829 48.7089 47.052 48.7638 46.9971C48.8188 46.9421 48.8496 46.8676 48.8496 46.7899C48.8496 46.7122 48.8188 46.6377 48.7638 46.5828C48.7089 46.5278 48.6344 46.4969 48.5567 46.4969Z" fill="#3F3679"/>
<path d="M42.058 46.4969H7.94203C7.86433 46.4969 7.78981 46.5278 7.73487 46.5828C7.67993 46.6377 7.64906 46.7122 7.64906 46.7899C7.64906 46.8676 7.67993 46.9421 7.73487 46.9971C7.78981 47.052 7.86433 47.0829 7.94203 47.0829H42.058C42.1357 47.0829 42.2103 47.052 42.2652 46.9971C42.3201 46.9421 42.351 46.8676 42.351 46.7899C42.351 46.7122 42.3201 46.6377 42.2652 46.5828C42.2103 46.5278 42.1357 46.4969 42.058 46.4969Z" fill="#3F3679"/>
<path d="M1.44334 44.7875H48.5566C48.6343 44.7875 48.7088 44.7567 48.7638 44.7017C48.8187 44.6468 48.8496 44.5723 48.8496 44.4946C48.8496 44.4169 48.8187 44.3423 48.7638 44.2874C48.7088 44.2324 48.6343 44.2016 48.5566 44.2016H30.4471L35.6129 29.8004C35.6372 29.7316 35.6349 29.6562 35.6066 29.589C35.5782 29.5218 35.5258 29.4676 35.4595 29.4369L38.4976 28.2549C38.649 28.1966 38.7792 28.0936 38.8708 27.9597C38.9623 27.8258 39.0111 27.6672 39.0105 27.5049V27.1235C39.0103 26.9101 38.9254 26.7056 38.7746 26.5547C38.6237 26.4039 38.4192 26.319 38.2058 26.3188H31.7906C31.5068 26.3181 31.2302 26.4084 31.0014 26.5763C30.7726 26.7443 30.6037 26.9812 30.5193 27.2522L30.4037 27.6203L30.2887 27.5791C30.2155 27.5529 30.135 27.5568 30.0648 27.5899C29.9945 27.6231 29.9403 27.6828 29.914 27.7559L27.2941 35.0584C26.4887 33.8182 25.4372 32.7566 24.2046 31.9394C22.9721 31.1223 21.5848 30.567 20.1289 30.308L20.0053 30.1676H24.5861C24.6638 30.1676 24.7383 30.1367 24.7933 30.0818C24.8482 30.0268 24.8791 29.9523 24.8791 29.8746V21.1131C25.5497 21.0409 26.17 20.7232 26.6205 20.2212C27.071 19.7192 27.32 19.0684 27.3196 18.3939C27.3192 17.7193 27.0693 17.0688 26.6181 16.5674C26.167 16.066 25.5463 15.7491 24.8756 15.6778C24.8411 13.337 23.8871 11.1038 22.2197 9.46065C20.5523 7.81749 18.3053 6.8963 15.9643 6.89612C13.6233 6.89594 11.3762 7.81678 9.70858 9.45969C8.04092 11.1026 7.08657 13.3357 7.05174 15.6764C6.3816 15.7488 5.76182 16.0662 5.31137 16.5676C4.86093 17.069 4.61155 17.7191 4.61111 18.3932C4.61068 19.0672 4.85921 19.7177 5.30901 20.2197C5.75881 20.7217 6.37818 21.0398 7.04822 21.1131V29.8748C7.04822 29.9525 7.07909 30.027 7.13403 30.082C7.18897 30.1369 7.26349 30.1678 7.34119 30.1678H11.9219L11.799 30.3072C9.29494 30.7497 7.02729 32.0615 5.39536 34.0116C3.76343 35.9618 2.87189 38.4251 2.87771 40.968V44.2016H1.44334C1.36564 44.2016 1.29112 44.2324 1.23618 44.2874C1.18123 44.3423 1.15037 44.4169 1.15037 44.4946C1.15037 44.5723 1.18123 44.6468 1.23618 44.7017C1.29112 44.7567 1.36564 44.7875 1.44334 44.7875ZM30.3664 28.2295L30.4926 28.2748L34.5277 29.7223L34.9621 29.8785L34.6158 30.844L30.0195 29.1949L30.3664 28.2295ZM31.0783 27.4278C31.1255 27.2759 31.2201 27.1431 31.3483 27.0489C31.4765 26.9548 31.6315 26.9042 31.7906 26.9047H38.206C38.264 26.9048 38.3196 26.9279 38.3606 26.9689C38.4016 27.0099 38.4247 27.0655 38.4248 27.1235V27.5049C38.4246 27.5489 38.4112 27.5919 38.3863 27.6282C38.3615 27.6646 38.3263 27.6927 38.2853 27.7088L34.6226 29.1346L30.9555 27.8192L31.0783 27.4278ZM15.9637 33.3932L13.6199 30.3393V28.6703C15.1542 29.0901 16.7731 29.0901 18.3074 28.6703V30.3393L15.9637 33.3932ZM13.034 29.7916V30.4387C13.034 30.5032 13.0553 30.5659 13.0945 30.617L15.5217 33.7795L13.3037 34.9739L12.2717 30.6574L13.034 29.7916ZM7.63416 19.1565V16.2381C8.30005 16.1881 8.95287 16.027 9.5656 15.7615C10.6179 15.3098 12.0347 14.3408 12.9599 12.2766C14.0488 13.0476 15.2195 13.6961 16.4508 14.2102C19.2984 15.3926 21.9746 15.5504 24.2135 14.6776C24.2659 15.0546 24.2925 15.4348 24.2931 15.8155V20.0694C24.2931 22.2785 23.4156 24.3971 21.8535 25.9592C20.2914 27.5213 18.1728 28.3989 15.9637 28.3989C13.7545 28.3989 11.6359 27.5213 10.0738 25.9592C8.51173 24.3971 7.63416 22.2785 7.63416 20.0694V19.1565ZM18.8328 30.617C18.872 30.5659 18.8933 30.5032 18.8933 30.4387V29.7918L19.6551 30.6572L18.6232 34.9737L16.4062 33.7795L18.8328 30.617ZM19.4892 29.5819L18.8933 28.9061V28.4881C20.12 28.058 21.2384 27.3661 22.1709 26.4605C23.1033 25.5548 23.8275 24.457 24.2931 23.2434V29.5819H19.4892ZM26.7353 18.3949C26.7344 18.9135 26.5461 19.4142 26.2052 19.8049C25.8642 20.1956 25.3935 20.4499 24.8799 20.5209V16.268C25.3926 16.3414 25.8619 16.5966 26.2023 16.987C26.5427 17.3773 26.7316 17.877 26.7345 18.3949H26.7353ZM15.9637 7.48596C17.872 7.48855 19.7217 8.14526 21.2045 9.34659C22.6872 10.5479 23.7133 12.2212 24.1117 14.0875C18.9504 16.2008 13.0765 11.636 13.0179 11.5893C12.9821 11.561 12.9402 11.5414 12.8955 11.5322C12.8508 11.523 12.8045 11.5243 12.7604 11.5362C12.7164 11.548 12.6756 11.5699 12.6415 11.6003C12.6074 11.6306 12.5809 11.6685 12.564 11.711C11.209 15.117 8.52361 15.591 7.63826 15.6528C7.68294 13.4733 8.57937 11.3981 10.1355 9.87159C11.6917 8.34508 13.7838 7.48872 15.9637 7.48596ZM5.19275 18.3949C5.19366 17.8764 5.38194 17.3757 5.72291 16.985C6.06388 16.5943 6.53456 16.34 7.04822 16.269V20.5211C6.53453 20.4501 6.06382 20.1958 5.72285 19.805C5.38187 19.4143 5.19361 18.9135 5.19275 18.3949ZM7.63416 29.5819V23.2434C8.09978 24.457 8.82396 25.5548 9.75642 26.4605C10.6889 27.3661 11.8073 28.058 13.034 28.4881V28.9061L12.4381 29.5824L7.63416 29.5819ZM3.46365 40.9686C3.45803 38.5933 4.28047 36.2903 5.78945 34.4559C7.29844 32.6214 9.39961 31.3703 11.7314 30.9178L12.8222 35.4805C12.8327 35.5241 12.853 35.5648 12.8816 35.5993C12.9103 35.6339 12.9465 35.6614 12.9874 35.6798C13.0284 35.6981 13.073 35.7068 13.1178 35.7052C13.1627 35.7035 13.2066 35.6916 13.2461 35.6703L15.9637 34.2071L18.6812 35.6703C18.7239 35.6935 18.7716 35.7055 18.8201 35.7055C18.8859 35.7055 18.9499 35.6833 19.0016 35.6425C19.0533 35.6017 19.0897 35.5447 19.1051 35.4807L20.1955 30.919C21.6143 31.1959 22.9581 31.7707 24.1384 32.6053C25.3186 33.4399 26.3084 34.5154 27.0424 35.7608L25.8463 39.0949C25.8333 39.1312 25.8275 39.1696 25.8294 39.208C25.8312 39.2465 25.8406 39.2841 25.857 39.319C25.8734 39.3538 25.8965 39.385 25.925 39.4109C25.9535 39.4367 25.9868 39.4567 26.023 39.4697C26.0592 39.4827 26.0977 39.4885 26.1361 39.4866C26.1745 39.4848 26.2122 39.4754 26.247 39.459C26.2818 39.4426 26.3131 39.4195 26.3389 39.391C26.3648 39.3625 26.3848 39.3292 26.3978 39.293L29.8222 29.7459L34.4183 31.3946L29.8242 44.2016H24.5248V40.3278C24.5248 40.2501 24.4939 40.1755 24.439 40.1206C24.384 40.0657 24.3095 40.0348 24.2318 40.0348C24.1541 40.0348 24.0796 40.0657 24.0247 40.1206C23.9697 40.1755 23.9388 40.2501 23.9388 40.3278V44.2016H7.98826V40.3278C7.98826 40.2501 7.95739 40.1755 7.90245 40.1206C7.84751 40.0657 7.77299 40.0348 7.69529 40.0348C7.61759 40.0348 7.54307 40.0657 7.48813 40.1206C7.43319 40.1755 7.40232 40.2501 7.40232 40.3278V44.2016H3.46365V40.9686Z" fill="#3F3679"/>
</svg>
