<svg width="50" height="50" viewBox="0 0 50 50" fill="none" xmlns="http://www.w3.org/2000/svg">
<path d="M44.2496 48.3672V41.6028H30.424V48.3672C30.424 48.8642 30.8267 49.2673 31.3237 49.2673H43.35C43.8468 49.2673 44.2496 48.8643 44.2496 48.3672Z" fill="#FFDFCF"/>
<path d="M19.5758 48.7119V41.0172H5.75012V48.7119C5.75012 49.0187 5.99877 49.2675 6.30549 49.2675H19.0204C19.3271 49.2675 19.5758 49.0187 19.5758 48.7119Z" fill="#FFDFCF"/>
<path d="M20.2011 8.99604C20.2011 7.67014 21.2755 6.59613 22.6008 6.59613C23.2634 6.59613 23.8635 6.86463 24.2968 7.29911C24.7311 7.73262 24.9994 8.33309 24.9994 8.99604V17.7326V28.128C24.9994 29.9597 24.3163 31.7269 23.0828 33.0811L21.2619 35.0807L21.5673 43.3096C21.5839 43.7636 21.2209 44.1414 20.7661 44.1414H4.61463C4.16378 44.1414 3.80174 43.7694 3.81345 43.3193L4.04473 34.0848L3.81345 29.7644L5.80616 26.0972V15.4977V5.82773C5.80616 5.16477 6.07452 4.56528 6.50878 4.1308C6.94206 3.69631 7.54222 3.42781 8.20483 3.42781C9.53005 3.42781 10.6045 4.50182 10.6045 5.82773V3.13295C10.6045 1.80704 11.6789 0.732056 13.0031 0.732056C13.6658 0.732056 14.2659 1.00056 14.7002 1.43504C15.1344 1.86953 15.4028 2.46999 15.4028 3.13295V6.36668C15.4028 5.04077 16.4772 3.96677 17.8024 3.96677C18.4651 3.96677 19.0642 4.23527 19.4985 4.66975C19.9328 5.10424 20.2011 5.70373 20.2011 6.36668V8.99604Z" fill="#B0E7C9"/>
<path d="M8.65129 24.998H5.80616V26.097L3.81345 29.7643L4.04473 34.0847L3.81345 43.3192C3.80174 43.7693 4.16378 44.1413 4.61463 44.1413H7.45976C7.00891 44.1413 6.64687 43.7693 6.65858 43.3192L6.88986 34.0847L6.65858 29.7643L8.65129 26.097V24.998Z" fill="#91DEB6"/>
<path d="M5.80615 17.733C6.92888 17.733 7.83897 16.8225 7.83897 15.6992V5.08964C7.83897 4.45295 8.08704 3.87513 8.49134 3.44543C8.39736 3.4342 8.30182 3.42786 8.20482 3.42786C7.54221 3.42786 6.94206 3.69636 6.50877 4.13084C6.07451 4.56533 5.80615 5.16482 5.80615 5.82777V15.4977V17.733Z" fill="#91DEB6"/>
<path d="M12.6374 13.047V2.14457C12.6374 1.61704 12.808 1.13032 13.0963 0.734399C13.0654 0.733227 13.0344 0.732056 13.0032 0.732056C11.6793 0.732056 10.6051 1.80655 10.6046 3.13197V12.8456V15.0809C11.7272 15.0809 12.6374 14.1702 12.6374 13.047Z" fill="#91DEB6"/>
<path d="M39.3953 5.82773C39.3953 4.50182 40.4697 3.42781 41.795 3.42781C42.4576 3.42781 43.0568 3.69631 43.491 4.1308C43.9253 4.56528 44.1936 5.16477 44.1936 5.82773V15.4977V23.5205L46.1864 29.8523L45.9551 34.0848L46.1864 43.3193C46.1981 43.7694 45.836 44.1414 45.3852 44.1414H29.2337C28.7789 44.1414 28.4159 43.7636 28.4325 43.3096L28.7379 35.0807L26.917 33.0811C25.6835 31.7269 24.9994 29.9597 24.9994 28.128V17.7326V8.99604C24.9994 8.33309 25.2678 7.73262 25.702 7.29911C26.1363 6.86463 26.7364 6.59613 27.399 6.59613C28.7243 6.59613 29.7987 7.67014 29.7987 8.99604V6.36668C29.7987 5.70373 30.067 5.10424 30.5013 4.66975C30.9346 4.23527 31.5347 3.96677 32.1974 3.96677C33.5226 3.96677 34.597 5.04077 34.597 6.36668V3.13295C34.597 2.46999 34.8654 1.86953 35.2996 1.43504C35.7339 1.00056 36.334 0.732056 36.9967 0.732056C38.3209 0.732056 39.3953 1.80704 39.3953 3.13295V5.82773Z" fill="#B0E7C9"/>
<path d="M30.5342 33.4994L29.4813 32.3433C28.2478 30.9891 27.5638 29.2218 27.5638 27.3902V7.9653C27.5638 7.53892 27.7121 7.03844 27.9207 6.65326C27.753 6.61616 27.5779 6.59644 27.399 6.59644C26.7364 6.59644 26.1363 6.86494 25.702 7.29942C25.2678 7.73293 24.9994 8.3334 24.9994 8.99635V28.1283C24.9994 29.96 25.6835 31.7272 26.917 33.0814L28.7379 35.081L28.4325 43.3099C28.4159 43.7639 28.7789 44.1417 29.2337 44.1417H31.0061L31.2678 35.4835C31.2899 34.7519 31.0268 34.0404 30.5342 33.4994Z" fill="#91DEB6"/>
<path d="M32.3631 5.14698C32.3631 4.78163 32.4733 4.36198 32.6357 4.00697C32.4938 3.98081 32.3468 3.96704 32.1973 3.96704C31.5347 3.96704 30.9346 4.23554 30.5013 4.67003C30.068 5.10353 29.8 5.70127 29.7988 6.36246V15.0811C31.215 15.0811 32.3631 13.9324 32.3631 12.5154V5.14698Z" fill="#91DEB6"/>
<path d="M37.1665 2.10132C37.1665 1.67552 37.316 1.17562 37.5241 0.790736C37.4328 0.770232 37.3381 0.754708 37.2431 0.745041C37.2396 0.744651 37.236 0.744553 37.2324 0.744163C37.196 0.740648 37.1594 0.737719 37.1226 0.735766C37.1023 0.73479 37.0818 0.734594 37.0614 0.734106C37.0406 0.73352 37.02 0.732544 36.9991 0.732544C36.3376 0.733227 35.7383 1.00153 35.3046 1.43543C34.8704 1.86894 34.602 2.46941 34.602 3.13236V15.0622C36.0183 15.0622 37.1664 13.9135 37.1664 12.4965V2.10132H37.1665Z" fill="#91DEB6"/>
<path d="M41.9722 4.52439C41.9722 4.18598 42.0679 3.8012 42.2108 3.46415C42.0762 3.44072 41.9364 3.42822 41.795 3.42822C40.5526 3.42822 39.5305 4.37227 39.4078 5.58287V14.9467C40.824 14.9467 41.9722 13.798 41.9722 12.381V4.52439Z" fill="#91DEB6"/>
<path d="M10.3357 32.7473C11.9823 32.7473 13.3423 31.4256 13.3505 29.778C13.3506 29.7672 13.3506 29.7564 13.3506 29.7455V29.5934C13.3506 28.1234 12.9934 26.6665 12.3177 25.3802C11.4144 23.6605 10.1306 22.178 8.56876 21.041C8.22379 20.7899 8.01945 20.3891 8.01945 19.9622V16.7195C8.01945 15.643 7.67223 14.5869 6.99518 13.7504C6.65285 13.3274 6.25001 12.9785 5.80619 12.7064V15.4977V26.0971L3.81348 29.7644L3.97313 32.7472H10.3357V32.7473Z" fill="#91DEB6"/>
<path d="M11.3988 29.5936V29.7457C11.3988 32.3123 9.24887 34.3547 6.68703 34.222L4.04468 34.085L2.04904 32.2123C1.20883 31.4234 0.731628 30.322 0.731628 29.1689V21.7603V16.7065C0.731628 15.2443 1.88442 14.013 3.34558 13.9841C4.10382 13.969 4.79112 14.2705 5.28598 14.7656C5.76903 15.2489 6.06765 15.9158 6.06765 16.653V21.7604L6.62389 22.0933C8.31799 23.1083 9.68449 24.5651 10.59 26.2889C11.1251 27.3074 11.3988 28.443 11.3988 29.5936Z" fill="#B0E7C9"/>
<path d="M5.05646 32.635C4.21624 31.8461 3.73904 30.7448 3.73904 29.5917V22.183V17.1292C3.73904 16.0784 4.33539 15.1468 5.21289 14.6952C4.72457 14.2424 4.06684 13.9697 3.34558 13.9841C1.88442 14.013 0.731628 15.2443 0.731628 16.7065V21.7603V29.1689C0.731628 30.322 1.20883 31.4234 2.04904 32.2123L4.04468 34.085L6.68703 34.2219C6.70791 34.223 6.86532 34.23 6.88611 34.2308L5.05646 32.635Z" fill="#91DEB6"/>
<path d="M15.4085 15.0809C16.5312 15.0809 17.4413 14.1703 17.4413 13.047V5.04466C17.4413 4.65773 17.5334 4.29286 17.6959 3.96948C16.4731 4.02289 15.4882 4.99096 15.4085 6.20732V15.0809Z" fill="#91DEB6"/>
<path d="M20.2092 15.081C21.3319 15.081 22.242 14.1704 22.242 13.0471V7.76513C22.242 7.34089 22.3534 6.94234 22.5466 6.5968C21.3101 6.62473 20.3041 7.58791 20.2092 8.8072V15.081Z" fill="#91DEB6"/>
<path d="M46.0282 32.7474L46.1864 29.8524L44.1937 23.5207V15.4979V12.7059C43.8847 12.8953 43.5959 13.122 43.3336 13.3848C42.461 14.258 41.9804 15.4186 41.9804 16.6529V20.6631C39.6667 22.1683 37.8949 24.4079 36.9656 27.0152C36.7556 27.6044 36.6492 28.2251 36.6492 28.86C36.6492 28.8739 36.6492 28.8879 36.6493 28.9019C36.6616 31.0349 38.4173 32.7475 40.5493 32.7475H46.0282V32.7474Z" fill="#91DEB6"/>
<path d="M49.2682 21.7603V29.169C49.2682 30.3221 48.791 31.4234 47.9508 32.2123L45.9552 34.085L43.5967 34.0129C40.8134 33.928 38.6011 31.6459 38.6011 28.8598C38.6011 28.4549 38.6682 28.0523 38.8042 27.6709C39.6332 25.3447 41.2455 23.3696 43.376 22.0931L43.9322 21.7602V16.6528C43.9322 15.9156 44.2308 15.2488 44.7139 14.7655C45.6162 13.8609 47.168 13.6028 48.6079 14.74C49.0233 15.0681 49.2682 15.5673 49.2682 16.0967V21.7603Z" fill="#B0E7C9"/>
<path d="M46.6003 13.2515C45.992 13.2515 45.4208 13.4129 44.9262 13.6942V10.4955C44.9262 10.091 44.5985 9.76318 44.1943 9.76318C43.7901 9.76318 43.4624 10.091 43.4624 10.4955C43.4624 10.4955 43.4637 15.3276 43.4643 15.3399C43.2945 15.7442 43.2004 16.1879 43.2004 16.6532V21.3453L42.9998 21.4654C40.5119 22.9557 38.7 25.3119 37.8979 28.0998C37.786 28.4884 38.0103 28.8942 38.3988 29.006C38.7873 29.1179 39.1927 28.8936 39.3046 28.505C40.0039 26.0748 41.5832 24.021 43.7518 22.722L44.3083 22.3886C44.5292 22.2563 44.6642 22.0178 44.6642 21.7603V16.6532C44.6642 15.5851 45.5327 14.7161 46.6002 14.7161C47.6678 14.7161 48.5363 15.5851 48.5363 16.6532V29.1687C48.5363 30.1157 48.1404 31.0305 47.45 31.6784L45.4547 33.551C45.3024 33.6939 45.2185 33.8948 45.2237 34.1035L45.455 43.3378C45.4555 43.3574 45.4489 43.3744 45.4351 43.3885C45.4215 43.4025 45.4046 43.4095 45.3851 43.4095H29.2341C29.2144 43.4095 29.1974 43.4023 29.1837 43.3882C29.1699 43.3739 29.1634 43.3567 29.1641 43.337L29.2629 40.671C29.278 40.2668 28.9627 39.927 28.5588 39.9121C28.1532 39.8948 27.8152 40.2125 27.8002 40.6166L27.7013 43.2827C27.6858 43.7031 27.8378 44.1014 28.1296 44.4044C28.4214 44.7073 28.8136 44.8741 29.234 44.8741H29.6923V49.2677C29.6923 49.6722 30.02 50 30.4242 50C30.8284 50 31.1561 49.6722 31.1561 49.2677V44.8741H43.5179V49.2677C43.5179 49.6722 43.8456 50 44.2498 50C44.654 50 44.9817 49.6722 44.9817 49.2677V44.8741H45.3851C45.802 44.8741 46.192 44.7096 46.483 44.411C46.7741 44.1123 46.9287 43.7182 46.9183 43.3011L46.6952 34.3948L48.4514 32.7466C49.4356 31.823 50 30.5188 50 29.1688V16.6531C50.0002 14.7774 48.4751 13.2515 46.6003 13.2515Z" fill="black"/>
<path d="M27.9954 35.3529L27.9159 37.4956C27.9009 37.8997 28.2162 38.2395 28.6202 38.2544C28.6295 38.2548 28.6387 38.2549 28.6478 38.2549C29.0395 38.2549 29.3641 37.9447 29.3787 37.5498L29.4693 35.108C29.4764 34.9163 29.4081 34.7295 29.279 34.5877L27.4582 32.5879C26.3451 31.3654 25.732 29.7813 25.732 28.1275V8.99617C25.732 8.07633 26.48 7.32794 27.3994 7.32794C28.3188 7.32794 29.0668 8.07633 29.0668 8.99617V17.733C29.0668 18.1374 29.3945 18.4653 29.7987 18.4653C30.2029 18.4653 30.5306 18.1374 30.5306 17.733V6.367C30.5306 5.44716 31.2786 4.69878 32.1979 4.69878C33.1173 4.69878 33.8653 5.44716 33.8653 6.367V17.733C33.8653 18.1374 34.193 18.4653 34.5972 18.4653C35.0014 18.4653 35.3291 18.1374 35.3291 17.733V3.13278C35.3291 2.21294 36.0771 1.46455 36.9964 1.46455C37.9158 1.46455 38.6638 2.21294 38.6638 3.13278V17.733C38.6638 18.1374 38.9915 18.4653 39.3957 18.4653C39.7999 18.4653 40.1276 18.1374 40.1276 17.733V5.82795C40.1276 4.90811 40.8756 4.15972 41.7949 4.15972C42.7143 4.15972 43.4623 4.90811 43.4623 5.82795V7.37452C43.4623 7.77893 43.79 8.10679 44.1942 8.10679C44.5984 8.10679 44.9261 7.77893 44.9261 7.37452V5.82795C44.9261 4.10056 43.5214 2.69517 41.7949 2.69517C41.1823 2.69517 40.6107 2.87277 40.1276 3.17828V3.13288C40.1276 1.40548 38.7229 9.76371e-05 36.9964 9.76371e-05C35.2699 9.76371e-05 33.8653 1.40548 33.8653 3.13288V3.71733C33.3821 3.41192 32.8105 3.23432 32.1979 3.23432C30.4782 3.23432 29.0782 4.62877 29.0673 6.34679C28.584 6.04119 28.0121 5.86339 27.3994 5.86339C26.437 5.86339 25.5749 6.30041 25.0001 6.98612C24.4254 6.30041 23.5633 5.86339 22.6009 5.86339C21.9881 5.86339 21.4163 6.04109 20.9329 6.34679C20.922 4.62867 19.522 3.23422 17.8023 3.23422C17.1896 3.23422 16.6181 3.41182 16.1349 3.71733V3.13278C16.1349 1.40539 14.7303 0 13.0038 0C11.2773 0 9.87261 1.40539 9.87261 3.13278V3.17818C9.38946 2.87277 8.8178 2.69507 8.20525 2.69507C6.47876 2.69507 5.0741 4.10046 5.0741 5.82785V13.694C4.57953 13.4128 4.00836 13.2512 3.4 13.2512C1.52518 13.2513 0 14.7773 0 16.653V18.578C0 18.9824 0.327695 19.3102 0.731897 19.3102C1.1361 19.3102 1.46379 18.9824 1.46379 18.578V16.653C1.46379 15.5848 2.33231 14.7158 3.39981 14.7158C4.4674 14.7158 5.33592 15.5848 5.33592 16.653V21.76C5.33592 22.0175 5.47108 22.256 5.69182 22.3883L6.24835 22.7218C8.41692 24.0208 9.99625 26.0746 10.6956 28.5048C10.7879 28.8258 11.0805 29.0347 11.3986 29.0347C11.4656 29.0347 11.5337 29.0254 11.6014 29.006C11.9897 28.8941 12.214 28.4883 12.1023 28.0997C11.3 25.3117 9.48812 22.9556 7.00035 21.4653L6.79972 21.3451V16.6531C6.79972 16.1896 6.70623 15.7476 6.5377 15.3445V5.82795C6.5377 4.90811 7.2857 4.15972 8.20506 4.15972C9.12442 4.15972 9.87242 4.90811 9.87242 5.82795V17.733C9.87242 18.1374 10.2001 18.4653 10.6043 18.4653C11.0085 18.4653 11.3362 18.1374 11.3362 17.733V3.13278C11.3362 2.21294 12.0842 1.46455 13.0036 1.46455C13.9229 1.46455 14.6709 2.21294 14.6709 3.13278V17.733C14.6709 18.1374 14.9986 18.4653 15.4028 18.4653C15.807 18.4653 16.1347 18.1374 16.1347 17.733V6.367C16.1347 5.44716 16.8827 4.69878 17.8021 4.69878C18.7214 4.69878 19.4694 5.44716 19.4694 6.367V17.733C19.4694 18.1374 19.7971 18.4653 20.2013 18.4653C20.6055 18.4653 20.9332 18.1374 20.9332 17.733V8.99617C20.9332 8.07633 21.6812 7.32794 22.6006 7.32794C23.52 7.32794 24.268 8.07633 24.268 8.99617V28.1276C24.268 29.7814 23.6549 31.3655 22.5419 32.588L20.721 34.5878C20.5919 34.7295 20.5236 34.9164 20.5307 35.1081L20.8358 43.3366C20.8364 43.3564 20.8299 43.3735 20.8162 43.3878C20.8025 43.4021 20.7856 43.4092 20.7659 43.4092H4.61495C4.59534 43.4092 4.57855 43.4021 4.56489 43.3881C4.55123 43.374 4.54459 43.3571 4.54508 43.3374L4.77646 34.1031C4.78173 33.8945 4.69771 33.6934 4.54547 33.5507L2.55013 31.678C1.8597 31.0302 1.46379 30.1154 1.46379 29.1684V21.6987C1.46379 21.2943 1.1361 20.9665 0.731897 20.9665C0.327695 20.9665 0 21.2943 0 21.6987V29.1684C0 30.5185 0.564439 31.8225 1.5486 32.7463L3.30486 34.3945L3.08178 43.3007C3.07133 43.7177 3.22581 44.1119 3.51691 44.4105C3.80801 44.7093 4.19797 44.8737 4.61495 44.8737H5.01838V49.2674C5.01838 49.6718 5.34607 49.9997 5.75027 49.9997C6.15448 49.9997 6.48217 49.6718 6.48217 49.2674V44.8737H18.8439V49.2674C18.8439 49.6718 19.1716 49.9997 19.5758 49.9997C19.98 49.9997 20.3077 49.6718 20.3077 49.2674V44.8737H20.7661C21.1866 44.8737 21.5788 44.7069 21.8706 44.4039C22.1622 44.1009 22.3144 43.7026 22.2988 43.2823L22.0047 35.3528L23.6242 33.5742C24.1941 32.9483 24.6551 32.244 25.0001 31.4891C25.3451 32.244 25.806 32.9483 26.3759 33.5742L27.9954 35.3529Z" fill="black"/>
</svg>
