<svg width="50" height="50" viewBox="0 0 50 50" fill="none" xmlns="http://www.w3.org/2000/svg">
<path d="M13.3334 25.8131L0.833538 0.860352H15.0001L21.6667 21.5109L13.3334 25.8131Z" fill="#7FCCCB"/>
<path d="M15.0002 0.860352H8.33354L18.0301 23.3884L21.6668 21.5109L15.0002 0.860352Z" fill="#31B1AE"/>
<path d="M36.6664 25.8131L49.1663 0.860352H34.9997L28.3331 21.5109L36.6664 25.8131Z" fill="#7FCCCB"/>
<path d="M34.9997 0.860352H41.6664L31.9698 23.3884L28.3331 21.5109L34.9997 0.860352Z" fill="#31B1AE"/>
<path d="M40.1898 34.3505L38.0473 35.7195C37.4412 36.0986 37.2282 36.901 37.5623 37.5462L38.7382 39.8092C39.084 40.4922 38.8281 41.3355 38.1665 41.6926C37.9825 41.7918 37.779 41.846 37.5715 41.851L35.0407 41.9534C34.3281 41.9739 33.7503 42.5562 33.7132 43.2914L33.6124 45.8426C33.5674 46.631 32.9119 47.2325 32.1483 47.1861C31.9508 47.174 31.7582 47.1185 31.5832 47.0231L29.3391 45.8374C28.7028 45.4997 27.9224 45.7103 27.5274 46.3261L26.1666 48.4867C25.7388 49.1535 24.8685 49.3359 24.2229 48.8941C24.0663 48.787 23.9321 48.6485 23.8283 48.4867L22.4733 46.3261C22.0783 45.7103 21.2979 45.4997 20.6616 45.8374L18.4167 47.0231C17.7393 47.39 16.9021 47.1203 16.5468 46.4209C16.4557 46.2417 16.4026 46.0446 16.3908 45.8426L16.2892 43.2914C16.2525 42.5559 15.6746 41.9731 14.9617 41.9525L12.4317 41.8501C11.6858 41.8355 11.0926 41.1992 11.1068 40.429C11.1108 40.2125 11.1636 40.0001 11.2609 39.8083L12.4367 37.5462C12.7709 36.901 12.5578 36.0986 11.9517 35.7195L9.80922 34.3505C9.1787 33.9577 8.97589 33.1116 9.35631 32.4606C9.46828 32.269 9.6237 32.1085 9.80922 31.9929L11.9517 30.624C12.5576 30.2453 12.771 29.4433 12.4375 28.7981L11.2609 26.5351C10.9146 25.8528 11.1697 25.0099 11.8306 24.6524C12.0163 24.5519 12.2221 24.4975 12.4317 24.4933L14.9625 24.3909C15.6752 24.3699 16.2529 23.7873 16.29 23.0521L16.3917 20.5009C16.4375 19.7129 17.0933 19.1127 17.8565 19.1601C18.0522 19.1722 18.2431 19.2272 18.4167 19.3212L20.6608 20.5069C21.2973 20.8448 22.078 20.6338 22.4725 20.0173L23.8299 17.8576C24.2578 17.1909 25.1281 17.0084 25.7737 17.4502C25.9302 17.5573 26.0644 17.6958 26.1683 17.8576L27.5258 20.0182C27.9207 20.634 28.7012 20.8446 29.3374 20.5069L31.5832 19.3212C32.2608 18.9548 33.0978 19.2249 33.4527 19.9246C33.5433 20.1032 33.5963 20.2996 33.6082 20.5009L33.7099 23.0529C33.7465 23.7882 34.3246 24.3708 35.0374 24.3909L37.5673 24.4933C38.3137 24.5108 38.9048 25.1497 38.8879 25.9204C38.8832 26.135 38.8305 26.3457 38.734 26.536L37.5582 28.7981C37.224 29.4433 37.437 30.2457 38.0432 30.6248L40.1857 31.9929C40.8169 32.3845 41.0212 33.2302 40.6419 33.882C40.5303 34.0738 40.3751 34.2346 40.1898 34.3505Z" fill="#EC7422"/>
<path d="M24.9999 43.1082C30.0625 43.1082 34.1665 38.8706 34.1665 33.6433C34.1665 28.416 30.0625 24.1785 24.9999 24.1785C19.9374 24.1785 15.8333 28.416 15.8333 33.6433C15.8333 38.8706 19.9374 43.1082 24.9999 43.1082Z" fill="#FFD884"/>
<path d="M31.7799 27.2928C33.7521 32.1036 31.574 37.6543 26.9148 39.6906C23.3261 41.2592 19.1691 40.3118 16.5533 37.329C18.5095 42.1503 23.8805 44.4214 28.5499 42.4017C33.2193 40.3819 35.4188 34.8361 33.4627 30.0147C33.0569 29.0146 32.4877 28.0939 31.7799 27.2928Z" fill="#FFBF41"/>
<path d="M25 27.6245L26.545 31.0233L29.9999 31.5679L27.4999 34.2138L28.0899 37.9498L25 36.1859L21.91 37.9498L22.5 34.2138L20 31.5679L23.455 31.0233L25 27.6245Z" fill="#FFF89B"/>
<path d="M15 33.6434C15 39.3459 19.4772 43.9687 24.9999 43.9687C30.5227 43.9687 34.9999 39.3459 34.9999 33.6434C34.9999 27.9409 30.5227 23.3181 24.9999 23.3181C19.4795 23.3242 15.0059 27.9434 15 33.6434ZM24.9999 25.039C29.6023 25.039 33.3332 28.8913 33.3332 33.6434C33.3332 38.3955 29.6023 42.2478 24.9999 42.2478C20.3976 42.2478 16.6667 38.3955 16.6667 33.6434C16.6717 28.8934 20.3996 25.0442 24.9999 25.039Z" fill="black"/>
<path d="M21.6099 34.5038L21.0874 37.8105C21.0137 38.2795 21.3221 38.7216 21.7764 38.7977C21.9605 38.8286 22.1492 38.7948 22.3124 38.7019L24.9999 37.1712L27.6874 38.7045C27.8104 38.7752 27.9491 38.8123 28.0899 38.812C28.5501 38.812 28.9232 38.4269 28.9232 37.9516C28.9232 37.9051 28.9196 37.8589 28.9124 37.8131L28.3899 34.5038L30.5966 32.1686C30.918 31.8285 30.9116 31.2837 30.5822 30.9518C30.4575 30.8262 30.2979 30.7441 30.1257 30.717L27.1107 30.2412L25.7541 27.2589C25.5583 26.8288 25.0619 26.6441 24.6454 26.8462C24.4697 26.9315 24.3284 27.0774 24.2458 27.2589L22.8891 30.2412L19.8741 30.717C19.4191 30.7886 19.1065 31.2275 19.1759 31.6973C19.2021 31.875 19.2816 32.0398 19.4033 32.1686L21.6099 34.5038ZM23.5833 31.8734C23.858 31.83 24.0937 31.648 24.2116 31.3881L24.9999 29.6492L25.7908 31.3881C25.9087 31.648 26.1444 31.83 26.4191 31.8734L28.2707 32.166L26.9032 33.6124C26.7185 33.808 26.6346 34.0826 26.6774 34.3524L26.9916 36.3391L25.4033 35.4331C25.1525 35.29 24.8482 35.29 24.5974 35.4331L23.0083 36.3391L23.3224 34.3524C23.3652 34.0826 23.2814 33.808 23.0966 33.6124L21.7291 32.166L23.5833 31.8734Z" fill="black"/>
<path d="M10.0942 21.0481C10.3068 21.4696 10.8101 21.6333 11.2184 21.4138C11.6266 21.1943 11.7851 20.6746 11.5725 20.2531L2.20842 1.72089H7.79171L14.2383 16.6977C14.3721 17.0086 14.6706 17.2088 15 17.2088C15.1149 17.2086 15.2284 17.1833 15.3333 17.1348C15.7539 16.942 15.9435 16.4336 15.7568 15.9993C15.7568 15.9991 15.7567 15.9991 15.7567 15.999L9.61587 1.72089H14.3992L18.3766 14.039C18.522 14.4904 18.9944 14.7346 19.4316 14.5845C19.8688 14.4343 20.1054 13.9466 19.96 13.4952L15.7933 0.588546C15.6797 0.236088 15.3598 -0.0011787 15 4.40451e-06H0.833431C0.373226 -0.000103151 0.000104166 0.385159 0 0.860338C0 0.998761 0.0322914 1.13514 0.0942701 1.25797L10.0942 21.0481Z" fill="black"/>
<path d="M30.5699 14.5836C31.0064 14.7333 31.4779 14.4895 31.6232 14.039L35.6007 1.72088H40.384L34.2382 15.999C34.0513 16.4333 34.2408 16.9418 34.6613 17.1347C34.6614 17.1347 34.6614 17.1348 34.6615 17.1348C34.768 17.184 34.8833 17.2091 34.9998 17.2088C35.3295 17.2092 35.6285 17.0089 35.7623 16.6977L42.2081 1.72088H47.7914L38.4273 20.2531C38.2147 20.6746 38.3733 21.1943 38.7815 21.4138C39.1897 21.6333 39.693 21.4696 39.9056 21.0481L49.9056 1.25796C50.1182 0.836564 49.9596 0.316857 49.5515 0.0973374C49.4325 0.0333421 49.3005 0 49.1664 0H34.9998C34.6413 0.000322665 34.3232 0.237267 34.2098 0.588542L30.0432 13.4952C29.8976 13.9458 30.1333 14.4331 30.5699 14.5836Z" fill="black"/>
<path d="M16.6443 18.6166C15.9997 19 15.5906 19.6982 15.5609 20.4657L15.4601 23.0178C15.4403 23.3049 15.2114 23.529 14.9326 23.534L12.4018 23.6364C11.6358 23.6607 10.9368 24.0941 10.556 24.7808C10.1839 25.448 10.1732 26.2666 10.5276 26.944L11.7043 29.2069C11.8303 29.4518 11.7464 29.7558 11.5143 29.8953L9.37098 31.2642C8.34901 31.907 8.02516 33.2835 8.64766 34.3386C8.82755 34.6436 9.07557 34.8996 9.37098 35.0854L11.5135 36.4535C11.7455 36.593 11.8295 36.897 11.7035 37.1419L10.5268 39.404C10.172 40.0805 10.1824 40.8987 10.5543 41.5654C10.9345 42.2529 11.6329 42.6874 12.3993 42.7133L14.9293 42.8148C15.208 42.8203 15.437 43.0439 15.4576 43.3311L15.5584 45.8823C15.5879 46.6501 15.9969 47.3486 16.6418 47.7322C17.302 48.1324 18.1147 48.1554 18.7951 47.7933L21.0384 46.6076C21.2944 46.4702 21.6095 46.5522 21.7717 46.7986L23.1317 48.9592C23.8099 50.0246 25.1963 50.3205 26.2281 49.6202C26.4829 49.4473 26.7009 49.2223 26.8684 48.9592L28.2258 46.7995C28.3877 46.5533 28.7023 46.4708 28.9583 46.6076L31.2025 47.7933C31.8832 48.1547 32.6957 48.1313 33.3558 47.7313C34.0004 47.3479 34.4094 46.6498 34.4391 45.8823L34.54 43.3311C34.5598 43.0439 34.7887 42.8198 35.0675 42.8148L37.5983 42.7124C38.364 42.6867 39.0619 42.2528 39.4424 41.5663C39.8145 40.8991 39.8252 40.0805 39.4708 39.4031L38.2941 37.141C38.1681 36.8961 38.252 36.5922 38.4841 36.4527L40.6274 35.0837C41.6494 34.441 41.9732 33.0645 41.3507 32.0094C41.1708 31.7043 40.9228 31.4484 40.6274 31.2625L38.4858 29.8944C38.2534 29.7551 38.1691 29.4512 38.2949 29.2061L39.4716 26.9431C39.8264 26.2666 39.816 25.4484 39.4441 24.7817C39.0638 24.0944 38.3653 23.6602 37.5991 23.6347L35.0691 23.5323C34.7904 23.5268 34.5614 23.3032 34.5408 23.016L34.44 20.4648C34.4105 19.697 34.0015 18.9985 33.3566 18.6149C32.6965 18.2149 31.884 18.1915 31.2033 18.5529L28.9583 19.7412C28.7024 19.8788 28.3873 19.7963 28.2258 19.5493L26.8684 17.3888C26.1901 16.3233 24.8038 16.0274 23.7719 16.7277C23.5171 16.9007 23.2992 17.1257 23.1317 17.3888L21.7742 19.5493C21.6128 19.7963 21.2977 19.8788 21.0417 19.7412L18.7976 18.5547C18.1171 18.1922 17.3042 18.2155 16.6443 18.6166ZM23.1725 20.4863L24.53 18.3275C24.7078 18.0593 25.0625 17.9905 25.3223 18.1741C25.3807 18.2153 25.431 18.2673 25.4709 18.3275L26.8275 20.4881C27.4524 21.4781 28.7022 21.8181 29.7183 21.2745L31.9625 20.0888C32.1372 19.9949 32.3463 20.0008 32.5158 20.1043C32.6688 20.1915 32.7673 20.3543 32.7758 20.5345L32.8766 23.0857C32.9375 24.2665 33.8606 25.2043 35.005 25.248L37.5349 25.3504C37.7266 25.3541 37.9024 25.4612 37.9983 25.6326C38.0848 25.7842 38.0873 25.9717 38.0049 26.1257L36.8274 28.3947C36.2903 29.4413 36.6322 30.7387 37.6091 31.3597L39.7508 32.7278C39.9901 32.8701 40.0724 33.1857 39.9346 33.4329C39.8906 33.5118 39.8272 33.5773 39.7508 33.6227L37.6083 34.9882C36.6317 35.6096 36.2901 36.9069 36.8274 37.9533L38.0049 40.2154C38.0875 40.3697 38.0847 40.5577 37.9974 40.7093C37.902 40.8807 37.7264 40.9879 37.5349 40.9915L35.0041 41.0939C33.8595 41.1368 32.9363 42.0752 32.8766 43.2562L32.7758 45.8074C32.7682 45.9878 32.67 46.1508 32.5166 46.2376C32.3471 46.3414 32.1376 46.3475 31.9625 46.254L29.7183 45.0683C28.7024 44.5226 27.4512 44.863 26.8275 45.8547L25.4709 48.0144C25.2931 48.2827 24.9384 48.3514 24.6786 48.1678C24.6202 48.1266 24.5699 48.0747 24.53 48.0144L23.1725 45.8616C22.7632 45.2099 22.0615 44.8173 21.3092 44.8188C20.9517 44.8193 20.5995 44.9078 20.2817 45.0769L18.0384 46.2574C17.8637 46.3511 17.6546 46.3453 17.4851 46.2419C17.3311 46.1556 17.2322 45.9924 17.2243 45.8117L17.1234 43.2596C17.0622 42.0791 16.1393 41.1414 14.9951 41.0973L12.4651 40.9958C12.2735 40.9922 12.0976 40.885 12.0018 40.7136C11.9153 40.5616 11.9132 40.3738 11.996 40.2197L13.1726 37.9576C13.7099 36.9108 13.3679 35.613 12.391 34.9917L10.2493 33.6236C10.0103 33.4809 9.92838 33.1652 10.0666 32.9182C10.1105 32.8399 10.1735 32.7748 10.2493 32.7296L12.3926 31.3597C13.3692 30.7384 13.7105 29.4407 13.1726 28.3947L12.0001 26.1283C11.9169 25.9741 11.9194 25.786 12.0068 25.6344C12.1022 25.463 12.2779 25.3561 12.4693 25.353L15.0001 25.2506C16.1445 25.2073 17.0675 24.2691 17.1276 23.0883L17.2284 20.5363C17.2362 20.3558 17.3348 20.1926 17.4884 20.106C17.6579 20.0016 17.8679 19.9957 18.0426 20.0905L20.2867 21.2762C21.3025 21.8164 22.5493 21.4751 23.1725 20.4863Z" fill="black"/>
</svg>
