<svg width="50" height="50" viewBox="0 0 50 50" fill="none" xmlns="http://www.w3.org/2000/svg">
<path d="M36.9368 3.48901V20.5203C36.9368 22.0334 35.7179 23.2606 34.214 23.2606H6.43082C4.92682 23.2606 3.70807 22.0334 3.70807 20.5203V3.48901C3.70807 1.97475 4.92692 0.747681 6.43082 0.747681H34.214C35.718 0.747681 36.9368 1.97475 36.9368 3.48901Z" fill="#467EB7"/>
<path d="M36.9368 3.48901V20.5203C36.9368 22.0334 35.7179 23.2606 34.214 23.2606H8.5061L30.8664 0.747681H34.214C35.718 0.747681 36.9368 1.97475 36.9368 3.48901Z" fill="#5997C9"/>
<path d="M12.3607 8.85529H8.08669C7.4989 8.85529 7.02234 8.37548 7.02234 7.78367V5.67367C7.02234 5.08187 7.4989 4.60205 8.08669 4.60205H12.3606C12.9484 4.60205 13.425 5.08187 13.425 5.67367V7.78367C13.4251 8.37548 12.9485 8.85529 12.3607 8.85529Z" fill="#F4B74A"/>
<path d="M45.8081 43.1029H4.19149C2.28661 43.1029 0.742371 41.5482 0.742371 39.6302V19.235C0.742371 17.3171 2.28651 15.7623 4.19149 15.7623H45.8082C47.7131 15.7623 49.2573 17.317 49.2573 19.235V39.6302C49.2572 41.5481 47.713 43.1029 45.8081 43.1029Z" fill="#38C183"/>
<path d="M43.9967 24.8256C41.9307 24.8256 40.2558 23.1393 40.2558 21.0591C40.2558 20.4209 40.414 19.8203 40.6922 19.2935H9.30765C9.58587 19.8202 9.74408 20.4209 9.74408 21.0591C9.74408 23.1392 8.06927 24.8256 6.00316 24.8256C5.36927 24.8256 4.77269 24.6663 4.24945 24.3862V34.4794C4.7726 34.1993 5.36927 34.04 6.00316 34.04C8.06918 34.04 9.74408 35.7262 9.74408 37.8064C9.74408 38.4446 9.58587 39.0453 9.30765 39.5721H40.6921C40.4139 39.0454 40.2557 38.4446 40.2557 37.8064C40.2557 35.7263 41.9306 34.04 43.9966 34.04C44.6305 34.04 45.2271 34.1993 45.7503 34.4794V24.3862C45.2272 24.6663 44.6304 24.8256 43.9967 24.8256Z" fill="#49E298"/>
<path d="M25 36.3181C28.7769 36.3181 31.8386 33.2355 31.8386 29.4328C31.8386 25.6302 28.7769 22.5476 25 22.5476C21.2232 22.5476 18.1614 25.6302 18.1614 29.4328C18.1614 33.2355 21.2232 36.3181 25 36.3181Z" fill="#38C183"/>
<path d="M35.692 49.2524C41.8169 49.2524 46.7821 44.2533 46.7821 38.0866C46.7821 31.9199 41.8169 26.9208 35.692 26.9208C29.5671 26.9208 24.6019 31.9199 24.6019 38.0866C24.6019 44.2533 29.5671 49.2524 35.692 49.2524Z" fill="#F4B74A"/>
<path d="M43.5334 38.0868C43.5334 42.447 40.0225 45.9819 35.6918 45.9819C33.6165 45.9819 31.7294 45.1694 30.3275 43.8436C29.2988 42.8737 28.5315 41.6267 28.1404 40.2201C27.9513 39.5422 27.8502 38.8264 27.8502 38.0868C27.8502 33.7265 31.3612 30.1917 35.6918 30.1917C36.4265 30.1917 37.1373 30.2933 37.8107 30.4838C39.2077 30.8775 40.4463 31.6501 41.4097 32.6858C42.7275 34.0973 43.5334 35.9973 43.5334 38.0868Z" fill="#FFD488"/>
<path d="M41.4097 32.6859L30.3276 43.8436C29.2989 42.8737 28.5316 41.6267 28.1405 40.2201L37.8108 30.4838C39.2078 30.8775 40.4465 31.6502 41.4097 32.6859Z" fill="#F9C662"/>
<path d="M3.70828 14.1548C4.11843 14.1548 4.45085 13.82 4.45085 13.4072V3.48888C4.45085 2.38963 5.33913 1.49529 6.43093 1.49529H34.2147C35.3065 1.49529 36.1948 2.38953 36.1948 3.48888V13.4072C36.1948 13.82 36.5272 14.1548 36.9374 14.1548C37.3475 14.1548 37.6799 13.82 37.6799 13.4072V3.48888C37.6799 1.5652 36.1255 0 34.2147 0H6.43093C4.52009 0 2.9657 1.5651 2.9657 3.48888V13.4072C2.9657 13.82 3.29822 14.1548 3.70828 14.1548Z" fill="black"/>
<path d="M6.27991 12.0041V13.3078C6.27991 13.7206 6.61233 14.0554 7.02249 14.0554C7.43264 14.0554 7.76506 13.7206 7.76506 13.3078V12.0041C7.76506 11.5913 7.43264 11.2565 7.02249 11.2565C6.61233 11.2565 6.27991 11.5913 6.27991 12.0041Z" fill="black"/>
<path d="M10.5847 12.0041V13.3078C10.5847 13.7206 10.9171 14.0554 11.3273 14.0554C11.7374 14.0554 12.0699 13.7206 12.0699 13.3078V12.0041C12.0699 11.5913 11.7374 11.2565 11.3273 11.2565C10.9171 11.2565 10.5847 11.5913 10.5847 12.0041Z" fill="black"/>
<path d="M8.43243 12.0041V13.3078C8.43243 13.7206 8.76486 14.0554 9.17501 14.0554C9.58517 14.0554 9.91759 13.7206 9.91759 13.3078V12.0041C9.91759 11.5913 9.58517 11.2565 9.17501 11.2565C8.76476 11.2565 8.43243 11.5913 8.43243 12.0041Z" fill="black"/>
<path d="M13.4796 11.2565C13.0695 11.2565 12.7371 11.5913 12.7371 12.0041V13.3078C12.7371 13.7206 13.0695 14.0554 13.4796 14.0554C13.8898 14.0554 14.2222 13.7206 14.2222 13.3078V12.0041C14.2222 11.5913 13.8899 11.2565 13.4796 11.2565Z" fill="black"/>
<path d="M26.423 12.0041V13.3078C26.423 13.7206 26.7554 14.0554 27.1655 14.0554C27.5757 14.0554 27.9081 13.7206 27.9081 13.3078V12.0041C27.9081 11.5913 27.5757 11.2565 27.1655 11.2565C26.7554 11.2565 26.423 11.5913 26.423 12.0041Z" fill="black"/>
<path d="M30.7282 12.0041V13.3078C30.7282 13.7206 31.0606 14.0554 31.4708 14.0554C31.8809 14.0554 32.2134 13.7206 32.2134 13.3078V12.0041C32.2134 11.5913 31.8809 11.2565 31.4708 11.2565C31.0606 11.2565 30.7282 11.5913 30.7282 12.0041Z" fill="black"/>
<path d="M28.5757 12.0041V13.3078C28.5757 13.7206 28.9081 14.0554 29.3183 14.0554C29.7284 14.0554 30.0608 13.7206 30.0608 13.3078V12.0041C30.0608 11.5913 29.7284 11.2565 29.3183 11.2565C28.9081 11.2565 28.5757 11.5913 28.5757 12.0041Z" fill="black"/>
<path d="M33.6231 11.2565C33.2129 11.2565 32.8805 11.5913 32.8805 12.0041V13.3078C32.8805 13.7206 33.2129 14.0554 33.6231 14.0554C34.0332 14.0554 34.3657 13.7206 34.3657 13.3078V12.0041C34.3657 11.5913 34.0332 11.2565 33.6231 11.2565Z" fill="black"/>
<path d="M16.3516 12.0041V13.3078C16.3516 13.7206 16.684 14.0554 17.0941 14.0554C17.5043 14.0554 17.8367 13.7206 17.8367 13.3078V12.0041C17.8367 11.5913 17.5043 11.2565 17.0941 11.2565C16.684 11.2565 16.3516 11.5913 16.3516 12.0041Z" fill="black"/>
<path d="M20.6564 12.0041V13.3078C20.6564 13.7206 20.9888 14.0554 21.399 14.0554C21.8091 14.0554 22.1415 13.7206 22.1415 13.3078V12.0041C22.1415 11.5913 21.8091 11.2565 21.399 11.2565C20.9887 11.2565 20.6564 11.5913 20.6564 12.0041Z" fill="black"/>
<path d="M18.5041 12.0041V13.3078C18.5041 13.7206 18.8365 14.0554 19.2467 14.0554C19.6568 14.0554 19.9892 13.7206 19.9892 13.3078V12.0041C19.9892 11.5913 19.6568 11.2565 19.2467 11.2565C18.8364 11.2565 18.5041 11.5913 18.5041 12.0041Z" fill="black"/>
<path d="M23.5515 11.2565C23.1413 11.2565 22.8089 11.5913 22.8089 12.0041V13.3078C22.8089 13.7206 23.1413 14.0554 23.5515 14.0554C23.9616 14.0554 24.2941 13.7206 24.2941 13.3078V12.0041C24.2941 11.5913 23.9617 11.2565 23.5515 11.2565Z" fill="black"/>
<path d="M14.1677 7.78363V5.67363C14.1677 4.67055 13.3572 3.85437 12.3608 3.85437H8.08684C7.09055 3.85437 6.27991 4.67045 6.27991 5.67363V7.78363C6.27991 8.78672 7.09045 9.6029 8.08684 9.6029H12.3608C13.3572 9.6029 14.1677 8.78682 14.1677 7.78363ZM7.76506 7.78363V5.67363C7.76506 5.49498 7.9094 5.34966 8.08684 5.34966H12.3608C12.5382 5.34966 12.6825 5.49498 12.6825 5.67363V7.78363C12.6825 7.96229 12.5382 8.10761 12.3608 8.10761H8.08684C7.9094 8.10761 7.76506 7.96229 7.76506 7.78363Z" fill="black"/>
<path d="M33.6231 6.44629H24.2267C23.8166 6.44629 23.4841 6.78108 23.4841 7.19393C23.4841 7.60679 23.8166 7.94158 24.2267 7.94158H33.623C34.0331 7.94158 34.3656 7.60679 34.3656 7.19393C34.3656 6.78108 34.0332 6.44629 33.6231 6.44629Z" fill="black"/>
<path d="M33.6231 3.78784H26.933C26.5229 3.78784 26.1904 4.12263 26.1904 4.53549C26.1904 4.94834 26.5229 5.28313 26.933 5.28313H33.6231C34.0333 5.28313 34.3657 4.94834 34.3657 4.53549C34.3657 4.12263 34.0333 3.78784 33.6231 3.78784Z" fill="black"/>
<path d="M45.8082 15.0149H15.1612C14.751 15.0149 14.4186 15.3497 14.4186 15.7625C14.4186 16.1754 14.751 16.5102 15.1612 16.5102H45.8083C47.3007 16.5102 48.5149 17.7326 48.5149 19.2352V39.6304C48.5149 40.4322 48.1661 41.19 47.558 41.7095C47.2453 41.9766 47.2069 42.4485 47.4723 42.7633C47.6192 42.9375 47.8283 43.0273 48.0389 43.0273C48.2087 43.0273 48.3793 42.969 48.519 42.8497C49.4603 42.0456 50 40.8723 50 39.6304V19.235C49.9999 16.908 48.1195 15.0149 45.8082 15.0149Z" fill="black"/>
<path d="M23.2182 42.3554H4.1917C2.69932 42.3554 1.48516 41.133 1.48516 39.6304V19.2352C1.48516 17.7326 2.69932 16.5102 4.1917 16.5102H12.6857C13.0959 16.5102 13.4283 16.1754 13.4283 15.7625C13.4283 15.3497 13.0959 15.0149 12.6857 15.0149H4.1917C1.88037 15.0151 0 16.9082 0 19.2352V39.6304C0 41.9575 1.88037 43.8506 4.1917 43.8506H23.2182C23.6283 43.8506 23.9607 43.5158 23.9607 43.103C23.9607 42.6901 23.6283 42.3554 23.2182 42.3554Z" fill="black"/>
<path d="M41.3286 18.9084C41.1945 18.6835 40.9528 18.5459 40.6921 18.5459H9.30776C9.04702 18.5459 8.80552 18.6835 8.67124 18.9084C8.53696 19.1334 8.52964 19.4127 8.6521 19.6445C8.88393 20.0835 9.00151 20.5593 9.00151 21.0591C9.00151 22.7236 7.65649 24.0779 6.00327 24.0779C5.50698 24.0779 5.03423 23.9595 4.59829 23.7261C4.36831 23.6029 4.09077 23.6102 3.86724 23.7454C3.6438 23.8806 3.50708 24.1238 3.50708 24.3863V34.4794C3.50708 34.7418 3.6438 34.985 3.86724 35.1202C4.09077 35.2555 4.36831 35.2627 4.59829 35.1395C5.03423 34.9061 5.50698 34.7876 6.00327 34.7876C7.65639 34.7876 9.00151 36.1418 9.00151 37.8064C9.00151 38.306 8.88393 38.7821 8.6521 39.2211C8.52973 39.4528 8.53696 39.7321 8.67124 39.9571C8.80542 40.1821 9.04712 40.3196 9.30776 40.3196H22.1785C22.5886 40.3196 22.921 39.9848 22.921 39.572C22.921 39.1591 22.5886 38.8243 22.1785 38.8243H10.3709C10.4474 38.4913 10.4867 38.1494 10.4867 37.8063C10.4867 35.3173 8.47544 33.2922 6.00327 33.2922C5.66265 33.2922 5.3229 33.3316 4.99214 33.4087V25.4565C5.3228 25.5336 5.66255 25.573 6.00327 25.573C8.47544 25.573 10.4867 23.548 10.4867 21.0589C10.4867 20.7159 10.4475 20.374 10.3709 20.0409H39.6289C39.5525 20.3739 39.5132 20.7159 39.5132 21.0589C39.5132 23.548 41.5244 25.573 43.9966 25.573C44.3372 25.573 44.677 25.5336 45.0077 25.4565V29.2571C45.0077 29.6699 45.3402 30.0047 45.7503 30.0047C46.1605 30.0047 46.4929 29.6699 46.4929 29.2571V24.386C46.4929 24.1235 46.3562 23.8803 46.1327 23.7451C45.9092 23.6098 45.6317 23.6026 45.4017 23.7258C44.9658 23.9592 44.493 24.0776 43.9967 24.0776C42.3436 24.0776 40.9985 22.7234 40.9985 21.0588C40.9985 20.5592 41.1161 20.0832 41.3479 19.6442C41.4702 19.4128 41.4629 19.1334 41.3286 18.9084Z" fill="black"/>
<path d="M25 23.2948C27.1631 23.2948 29.1835 24.4655 30.273 26.3501C30.4793 26.707 30.9341 26.8278 31.2883 26.6202C31.6428 26.4125 31.7628 25.9548 31.5565 25.598C30.202 23.255 27.6897 21.7996 25 21.7996C20.8194 21.7996 17.4185 25.2238 17.4185 29.4328C17.4185 32.7211 19.4981 35.6309 22.5937 36.6733C22.6718 36.6997 22.7512 36.712 22.8293 36.712C23.1398 36.712 23.4295 36.5142 23.5334 36.2014C23.6635 35.8098 23.4537 35.3862 23.0647 35.2551C20.576 34.4168 18.9037 32.077 18.9037 29.4326C18.9035 26.0482 21.6384 23.2948 25 23.2948Z" fill="black"/>
<path d="M14.5956 27.2137H8.9844C8.57424 27.2137 8.24182 27.5485 8.24182 27.9614C8.24182 28.3742 8.57424 28.709 8.9844 28.709H14.5957C15.0059 28.709 15.3383 28.3742 15.3383 27.9614C15.3382 27.5484 15.0059 27.2137 14.5956 27.2137Z" fill="black"/>
<path d="M14.5955 30.1565H11.0885C10.6783 30.1565 10.3459 30.4913 10.3459 30.9041C10.3459 31.317 10.6783 31.6518 11.0885 31.6518H14.5955C15.0056 31.6518 15.3381 31.317 15.3381 30.9041C15.3381 30.4913 15.0057 30.1565 14.5955 30.1565Z" fill="black"/>
<path d="M43.3794 21.5208C43.7583 22.1014 44.6897 21.8526 44.7367 21.1603C44.7813 20.5046 43.9938 20.1108 43.5035 20.5466C43.2285 20.7911 43.1781 21.2137 43.3794 21.5208Z" fill="black"/>
<path d="M5.56169 21.5208C5.72809 21.7758 6.04723 21.9011 6.34177 21.8347C6.65729 21.7635 6.89557 21.4849 6.91882 21.1603C6.96667 20.4926 6.14489 20.0999 5.66413 20.5665C5.40739 20.8157 5.36569 21.222 5.56169 21.5208Z" fill="black"/>
<path d="M6.79614 37.3448C6.61509 37.0675 6.25728 36.9472 5.94595 37.0507C5.65132 37.1486 5.44439 37.4291 5.43628 37.7415C5.42866 38.0344 5.59888 38.31 5.86118 38.4355C6.1562 38.5767 6.51929 38.5017 6.7354 38.2549C6.95591 38.0029 6.97915 37.6242 6.79614 37.3448Z" fill="black"/>
<path d="M35.692 26.1737C29.1677 26.1737 23.8595 31.5179 23.8595 38.0869C23.8595 44.6558 29.1675 50 35.692 50C42.2165 50 47.5244 44.6558 47.5244 38.0869C47.5244 31.5179 42.2164 26.1737 35.692 26.1737ZM35.692 48.5047C29.9864 48.5047 25.3447 43.8313 25.3447 38.0869C25.3447 32.3425 29.9864 27.669 35.692 27.669C41.3975 27.669 46.0393 32.3425 46.0393 38.0869C46.0393 43.8313 41.3975 48.5047 35.692 48.5047Z" fill="black"/>
<path d="M35.6922 29.4437C34.057 29.4437 32.4666 29.9086 31.0927 30.7878C30.7467 31.0093 30.6444 31.4713 30.8644 31.8199C31.0844 32.1683 31.5435 32.2712 31.8894 32.0498C33.0248 31.3232 34.3397 30.9391 35.6921 30.9391C39.6065 30.9391 42.7912 34.1455 42.7912 38.0867C42.7912 42.0278 39.6065 45.2342 35.6921 45.2342C31.7776 45.2342 28.5929 42.0278 28.5929 38.0867C28.5929 36.3416 29.2242 34.6615 30.3706 33.3557C30.6422 33.0463 30.6132 32.5737 30.3059 32.3004C29.9985 32.0269 29.5293 32.0562 29.2577 32.3655C27.8714 33.9449 27.1078 35.9767 27.1078 38.0868C27.1078 42.8525 30.9587 46.7296 35.6921 46.7296C40.4255 46.7296 44.2763 42.8525 44.2763 38.0868C44.2763 33.3211 40.4257 29.4437 35.6922 29.4437Z" fill="black"/>
<path d="M33.6347 40.4361C33.6347 40.0232 33.3023 39.6884 32.8921 39.6884C32.482 39.6884 32.1495 40.0232 32.1495 40.4361C32.1495 41.921 33.3516 43.1648 34.9496 43.464V43.725C34.9496 44.1379 35.2821 44.4727 35.6922 44.4727C36.1024 44.4727 36.4348 44.1379 36.4348 43.725V43.464C38.0328 43.1647 39.2348 41.921 39.2348 40.4361C39.2348 38.9511 38.0328 37.7074 36.4348 37.4081V34.2454C37.203 34.4779 37.7496 35.0582 37.7496 35.7373C37.7496 36.1502 38.0821 36.485 38.4922 36.485C38.9024 36.485 39.2348 36.1502 39.2348 35.7373C39.2348 34.2523 38.0328 33.0087 36.4348 32.7094V32.4483C36.4348 32.0355 36.1024 31.7007 35.6922 31.7007C35.2821 31.7007 34.9496 32.0355 34.9496 32.4483V32.7094C33.3516 33.0087 32.1495 34.2524 32.1495 35.7373C32.1495 37.2223 33.3516 38.4661 34.9496 38.7653V41.928C34.1815 41.6957 33.6347 41.1153 33.6347 40.4361ZM37.7496 40.4361C37.7496 41.1152 37.2029 41.6956 36.4348 41.928V38.9439C37.2029 39.1765 37.7496 39.7569 37.7496 40.4361ZM33.6347 35.7374C33.6347 35.0583 34.1816 34.4779 34.9496 34.2455V37.2296C34.1815 36.9969 33.6347 36.4167 33.6347 35.7374Z" fill="black"/>
</svg>
