<svg width="50" height="50" viewBox="0 0 50 50" fill="none" xmlns="http://www.w3.org/2000/svg">
<path d="M38.0585 30.3438C37.6337 30.3053 37.2068 30.285 36.7796 30.285C35.2523 30.285 33.7205 30.5313 32.2472 31.0284C31.6621 31.2249 31.0927 31.4577 30.5414 31.7288L21.6324 36.0872L6.72475 27.9985C6.27514 27.7409 5.78705 27.619 5.30366 27.619C4.31401 27.619 3.35151 28.1343 2.8228 29.0538C2.03647 30.4208 2.61811 31.8677 3.87787 32.9536L18.6162 46.4559C18.6251 46.4628 18.6343 46.4718 18.6433 46.4786C20.0826 47.5766 22.0031 47.8161 23.6976 47.1768L35.6093 42.6784C36.931 42.2333 38.3162 42.1362 39.6402 42.3575C40.4128 42.4862 41.1654 42.7235 41.8771 43.0647V31.2366C40.6455 30.7618 39.3599 30.4635 38.0585 30.3438Z" fill="#FFBB98"/>
<path d="M47.5255 29.365V44.1904C47.5255 44.7558 47.0683 45.2133 46.5027 45.2133H42.9003C42.3347 45.2133 41.8775 44.756 41.8775 44.1904V29.365C41.8775 28.8013 42.3347 28.3422 42.9003 28.3422H46.5027C47.0681 28.3422 47.5255 28.8013 47.5255 29.365Z" fill="#4BDBC3"/>
<path d="M47.5255 29.365V44.1904C47.5255 44.7558 47.0683 45.2133 46.5027 45.2133H45.7001C45.1345 45.2133 44.6773 44.756 44.6773 44.1904V29.365C44.6773 28.8013 45.1345 28.3422 45.7001 28.3422H46.5027C47.0681 28.3422 47.5255 28.8013 47.5255 29.365Z" fill="#3BB2A0"/>
<path d="M38.0585 30.3439C37.6337 30.3055 37.2067 30.2852 36.7796 30.2852C35.2522 30.2852 33.7204 30.5314 32.2472 31.0285C31.662 31.225 31.0927 31.4578 30.5413 31.7289L21.6323 36.0873L20.2202 36.7787C19.2962 37.2441 18.7628 38.1795 18.7628 39.1467C18.7628 39.5488 18.8532 39.9578 19.0476 40.3397C19.7073 41.6479 21.3003 42.1742 22.6085 41.5145L33.546 36.1643C33.546 36.1643 36.7149 34.7422 40.6026 35.015L41.8769 35.1174V31.2365C40.6454 30.7619 39.3599 30.4637 38.0585 30.3439Z" fill="#FFCAA6"/>
<path d="M22.1711 28.3422C29.3139 28.3422 35.1043 22.5518 35.1043 15.409C35.1043 8.26622 29.3139 2.47583 22.1711 2.47583C15.0282 2.47583 9.23785 8.26622 9.23785 15.409C9.23785 22.5518 15.0282 28.3422 22.1711 28.3422Z" fill="#EA2A6A"/>
<path d="M22.1711 24.1758C17.3373 24.1758 13.4044 20.243 13.4044 15.409C13.4044 10.575 17.3373 6.64221 22.1711 6.64221C27.005 6.64221 30.938 10.575 30.938 15.409C30.938 20.2432 27.005 24.1758 22.1711 24.1758Z" fill="#FFEFEE"/>
<path d="M27.2808 13.1593L24.4826 12.7526C24.2732 12.7221 24.0923 12.5907 23.9986 12.401L22.7472 9.8655C22.5115 9.38777 21.8302 9.38777 21.5945 9.8655L20.3431 12.401C20.2495 12.5907 20.0685 12.7221 19.8591 12.7526L17.0609 13.1593C16.5337 13.2358 16.3232 13.8837 16.7046 14.2553L18.7294 16.2292C18.8808 16.3768 18.9499 16.5895 18.9142 16.7979L18.4363 19.5848C18.3462 20.1098 18.8972 20.5102 19.3687 20.2624L21.8714 18.9466C22.0587 18.8481 22.2824 18.8481 22.4697 18.9466L24.9724 20.2624C25.4439 20.5102 25.9951 20.1098 25.905 19.5848L25.4271 16.7979C25.3913 16.5895 25.4605 16.3766 25.6119 16.2292L27.6367 14.2553C28.0185 13.8837 27.8081 13.2358 27.2808 13.1593Z" fill="#F9D335"/>
<path d="M34.4727 39.3697L34.2699 39.4521C33.3199 39.8383 33.8928 41.2916 34.8582 40.8998L35.061 40.8174C35.4608 40.6549 35.653 40.1992 35.4907 39.7994C35.328 39.3996 34.8721 39.2078 34.4727 39.3697Z" fill="#5F266D"/>
<path d="M31.5559 40.5543L29.7461 41.2892C28.7981 41.6742 29.3672 43.1293 30.334 42.7369L32.1438 42.0019C32.5436 41.8396 32.7359 41.384 32.5736 40.9842C32.4113 40.5843 31.9555 40.3924 31.5559 40.5543Z" fill="#5F266D"/>
<path d="M46.5025 27.5652H42.9006C41.9057 27.5652 41.0963 28.3746 41.0963 29.3693V30.1517C37.4924 29.0658 33.5801 29.3678 30.2 31.0305L21.6551 35.2111L7.11719 27.324C5.37793 26.3279 3.14981 26.9307 2.15 28.6683C1.23789 30.2549 1.71621 32.1672 3.36836 33.5453C3.94082 34.0713 18.1002 47.0474 18.1723 47.1017C19.8008 48.3439 22.0254 48.6461 23.9756 47.909L35.8734 43.4172C37.5852 42.8431 39.4211 42.9035 41.0961 43.5775V44.192C41.0961 45.1869 41.9057 45.9961 42.9004 45.9961H46.5023C47.4973 45.9961 48.3064 45.1867 48.3064 44.192V29.3693C48.3066 28.3746 47.4975 27.5652 46.5025 27.5652ZM41.0961 41.9156C39.2328 41.3066 37.2357 41.3084 35.3609 41.9408C35.3522 41.9439 35.3436 41.9469 35.3348 41.9502L23.4234 46.447C21.9781 46.9927 20.3434 46.7761 19.1453 45.8783C18.4836 45.2746 4.53477 32.4947 4.41445 32.384C4.40352 32.374 4.39278 32.3642 4.38125 32.3551C3.54668 31.6639 2.87813 30.5367 3.50449 29.4471C4.0752 28.4549 5.34746 28.1107 6.35645 28.6883L19.9324 36.0537L19.8719 36.0834C19.0522 36.4963 18.443 37.2051 18.1564 38.0789C17.2137 40.956 20.2299 43.5924 22.9547 42.2181L34.1037 36.7644C34.4912 36.5748 34.6518 36.107 34.4621 35.7193C34.2727 35.3318 33.8047 35.1713 33.417 35.3609L22.2596 40.8187C20.7621 41.5732 19.1293 40.1271 19.6412 38.5652C19.7973 38.089 20.1287 37.7033 20.5668 37.4826L30.8881 32.433C34.0561 30.8746 37.7463 30.6504 41.0963 31.7904V41.9156H41.0961ZM46.7441 44.192C46.7441 44.3254 46.6357 44.4336 46.5025 44.4336H42.9006C42.7672 44.4336 42.6588 44.3252 42.6588 44.192V29.3693C42.6588 29.2359 42.7674 29.1277 42.9006 29.1277H46.5025C46.6359 29.1277 46.7441 29.2361 46.7441 29.3693V44.192Z" fill="#5F266D"/>
<path d="M22.1711 24.9573C27.436 24.9573 31.7194 20.674 31.7194 15.4092C31.7194 10.1444 27.436 5.86096 22.1711 5.86096C16.9065 5.86096 12.6233 10.1444 12.6233 15.4092C12.6233 20.674 16.9065 24.9573 22.1711 24.9573ZM22.1711 7.42346C26.5745 7.42346 30.1569 11.0059 30.1569 15.4092C30.1569 19.8125 26.5745 23.3948 22.1711 23.3948C17.768 23.3948 14.1858 19.8125 14.1858 15.4092C14.1858 11.0059 17.768 7.42346 22.1711 7.42346Z" fill="#5F266D"/>
<path d="M17.6669 19.4528C17.4675 20.6157 18.6885 21.5026 19.7329 20.954L22.1712 19.6721L24.6094 20.9538C25.6532 21.5032 26.8749 20.6157 26.6755 19.4528L26.2098 16.7378L28.1825 14.8149C28.5735 14.4341 28.7116 13.8747 28.5428 13.3552C28.1477 12.1393 26.7608 12.3878 26.0526 12.1913L26.468 11.6346C26.726 11.2887 26.655 10.7993 26.3093 10.5411C25.9634 10.2835 25.4743 10.3544 25.2157 10.6999L24.5024 11.6557L23.4481 9.5198C22.926 8.4616 21.4165 8.46179 20.8944 9.5196L19.6753 11.9897L16.9495 12.3858C15.7817 12.5552 15.3153 13.9917 16.16 14.8147L18.1327 16.7376L17.6669 19.4528ZM17.4518 13.8921L19.9723 13.5257C20.4358 13.4581 20.8366 13.1671 21.044 12.7469L22.1712 10.4632C23.3456 12.8124 23.2884 12.7946 23.4801 13.0257L21.7163 15.3893L21.368 14.9343C21.1057 14.5921 20.6155 14.5268 20.2727 14.7887C19.9301 15.051 19.8649 15.5415 20.1272 15.8841L21.1038 17.1598C21.2518 17.353 21.4811 17.4661 21.7243 17.4661H21.729C21.9739 17.4645 22.204 17.3483 22.3505 17.1522L24.9897 13.6159L26.8911 13.8923L25.0673 15.67C24.7317 15.9971 24.5786 16.468 24.6577 16.9302L25.0882 19.4405L22.8339 18.2553C22.4188 18.0372 21.9235 18.0376 21.5089 18.2553L19.2546 19.4405L19.685 16.93C19.7641 16.468 19.611 15.9971 19.2755 15.67L17.4518 13.8921Z" fill="#5F266D"/>
<path d="M22.1713 29.1235C29.7334 29.1235 35.8858 22.9711 35.8858 15.409C35.8858 7.84692 29.7334 1.69458 22.1713 1.69458C14.6092 1.69458 8.45688 7.84692 8.45688 15.409C8.45688 22.9711 14.6092 29.1235 22.1713 29.1235ZM22.1713 3.25708C28.8719 3.25708 34.3233 8.70845 34.3233 15.409C34.3233 22.1096 28.8719 27.561 22.1713 27.561C15.4707 27.561 10.0194 22.1096 10.0194 15.409C10.0194 8.70845 15.4707 3.25708 22.1713 3.25708Z" fill="#5F266D"/>
</svg>
