<svg width="43" height="43" viewBox="0 0 43 43" fill="none" xmlns="http://www.w3.org/2000/svg">
<path d="M21.7861 6.34527C23.5355 6.34527 24.9587 4.92207 24.9587 3.17268C24.9588 1.4232 23.5355 0 21.7861 0C20.0367 0 18.6135 1.4232 18.6135 3.17259C18.6135 4.92199 20.0367 6.34527 21.7861 6.34527ZM21.7861 1.25977C22.8409 1.25977 23.699 2.11792 23.699 3.17259C23.699 4.22727 22.8409 5.08542 21.7861 5.08542C20.7314 5.08542 19.8733 4.22727 19.8733 3.17259C19.8733 2.11792 20.7314 1.25977 21.7861 1.25977ZM11.6736 18.2246C13.1556 18.2246 14.3611 17.019 14.3611 15.5371C14.3611 14.0552 13.1556 12.8496 11.6736 12.8496C10.1917 12.8496 8.98615 14.0552 8.98615 15.5371C8.98615 17.019 10.1917 18.2246 11.6736 18.2246ZM11.6736 14.1094C12.4609 14.1094 13.1014 14.7498 13.1014 15.5371C13.1014 16.3244 12.4609 16.9648 11.6736 16.9648C10.8864 16.9648 10.2459 16.3244 10.2459 15.5371C10.2459 14.7498 10.8864 14.1094 11.6736 14.1094ZM32.0865 31.363C31.0967 31.363 30.2401 32.0672 30.0495 33.0372C29.9825 33.3785 30.2048 33.7096 30.5462 33.7767C30.8876 33.8438 31.2187 33.6214 31.2857 33.28C31.3605 32.8992 31.6973 32.6228 32.0866 32.6228C32.5365 32.6228 32.9027 32.9889 32.9027 33.439C32.9027 33.889 32.5366 34.2551 32.0866 34.2551C31.7387 34.2551 31.4567 34.5371 31.4567 34.885C31.4567 35.233 31.7387 35.5149 32.0866 35.5149C32.5365 35.5149 32.9027 35.881 32.9027 36.3311C32.9027 36.7811 32.5366 37.1472 32.0866 37.1472C31.6816 37.1472 31.3341 36.8456 31.2783 36.4457C31.224 36.0565 31.1158 35.7012 30.6404 35.7012C30.1232 35.7012 29.9704 36.1884 30.0305 36.6198C30.1726 37.6387 31.0565 38.407 32.0865 38.407C33.2311 38.407 34.1624 37.4758 34.1624 36.3311C34.1624 35.7692 33.9377 35.2592 33.5739 34.885C33.9377 34.5109 34.1624 34.0008 34.1624 33.439C34.1624 32.2942 33.2311 31.363 32.0865 31.363ZM41.4447 30.045L42.9532 23.1956C43.1869 22.1326 42.5148 21.0765 41.4556 20.8416C40.4017 20.6078 39.3316 21.2914 39.1051 22.3437L38.8259 23.6104C38.5579 23.5236 38.3185 23.4207 38.0714 23.3139C37.3778 23.0141 36.5916 22.6742 35.1011 22.6742C33.6108 22.6742 32.8246 23.0139 32.131 23.3136C31.4652 23.6015 30.8901 23.85 29.6597 23.85C28.4299 23.85 27.855 23.6015 27.1893 23.3137C26.4957 23.014 25.7096 22.6742 24.2192 22.6742C22.7288 22.6742 21.9426 23.014 21.249 23.3137C20.5834 23.6015 20.0085 23.85 18.7786 23.85C17.5487 23.85 16.9739 23.6015 16.3082 23.3137C15.6148 23.014 14.8289 22.6742 13.339 22.6742C11.8485 22.6742 11.0624 23.014 10.3688 23.3137C9.70312 23.6015 9.12825 23.85 7.89838 23.85C7.41631 23.85 6.99891 23.8105 6.62224 23.7293C6.28227 23.656 5.94709 23.8722 5.87377 24.2122C5.80046 24.5523 6.01672 24.8874 6.35677 24.9607C6.82171 25.0609 7.32603 25.1096 7.89838 25.1096C9.38885 25.1096 10.1749 24.7698 10.8686 24.4701C11.5342 24.1824 12.1091 23.9339 13.339 23.9339C14.5683 23.9339 15.143 24.1823 15.8084 24.47C16.5019 24.7698 17.2881 25.1096 18.7786 25.1096C20.2691 25.1096 21.0552 24.7698 21.7488 24.4701C22.4145 24.1824 22.9894 23.9339 24.2192 23.9339C25.4489 23.9339 26.0239 24.1824 26.6895 24.4701C27.3831 24.7698 28.1692 25.1096 29.6597 25.1096C31.1506 25.1096 31.9369 24.7698 32.6307 24.47C33.2964 24.1823 33.8713 23.9339 35.101 23.9339C36.3309 23.9339 36.9058 24.1824 37.5713 24.4702C37.8736 24.6009 38.1831 24.7343 38.5534 24.8459L38.0104 27.3097C37.0332 26.8954 35.9592 26.6661 34.8328 26.6661C30.3295 26.6661 26.6658 30.3298 26.6658 34.833C26.6658 37.7372 28.1899 40.2918 30.4799 41.7402H8.14547C6.54195 41.7402 5.17998 40.6418 4.83346 39.0691L1.27681 22.9252C1.1919 22.5393 1.43453 22.1563 1.8185 22.0711C2.19643 21.9873 2.5831 22.236 2.66431 22.6149L6.22189 38.7583C6.42295 39.6709 7.214 40.3084 8.14555 40.3084H25.8671C26.215 40.3084 26.497 40.0264 26.497 39.6785C26.497 39.3306 26.215 39.0486 25.8671 39.0486H8.14547C7.81003 39.0486 7.52491 38.8178 7.45209 38.4872L3.8946 22.344C3.66876 21.2918 2.59225 20.6092 1.54488 20.8414C0.484832 21.0765 -0.187379 22.1326 0.0464338 23.1959L3.60317 39.3402C4.0781 41.4951 5.94592 43 8.14547 43H34.8332C34.8358 43 34.8385 42.9999 34.8412 42.9999C39.3406 42.9955 42.9999 39.3336 42.9999 34.8331C42.9998 33.0458 42.4223 31.3912 41.4447 30.045ZM39.9206 24.4964C39.9209 24.4949 39.9214 24.4934 39.9217 24.4918C39.9217 24.4915 39.9218 24.4913 39.9218 24.491L40.3354 22.6145C40.4167 22.2349 40.8028 21.9872 41.1821 22.0713C41.5651 22.1562 41.8077 22.5392 41.7229 22.9249L40.4124 28.8751C40.0299 28.5166 39.6131 28.1946 39.1673 27.9143L39.9206 24.4964ZM34.8328 41.7402C31.0242 41.7402 27.9256 38.6416 27.9256 34.8331C27.9256 31.0245 31.0242 27.926 34.8328 27.926C38.6415 27.926 41.74 31.0246 41.74 34.8331C41.7401 38.6416 38.6415 41.7402 34.8328 41.7402ZM20.45 13.9207C21.6658 13.9207 22.6548 12.9316 22.6548 11.7158C22.6548 10.5001 21.6657 9.51098 20.45 9.51098C19.2343 9.51098 18.2453 10.5001 18.2453 11.7158C18.2453 12.9316 19.2343 13.9207 20.45 13.9207ZM20.45 10.7707C20.9711 10.7707 21.395 11.1947 21.395 11.7158C21.395 12.2369 20.9711 12.6609 20.45 12.6609C19.929 12.6609 19.505 12.2369 19.505 11.7158C19.505 11.1947 19.9289 10.7707 20.45 10.7707ZM37.3911 31.2592C36.1427 31.2592 35.127 32.2749 35.127 33.5233V36.1368C35.127 37.3851 36.1427 38.4008 37.3911 38.4008C38.6395 38.4008 39.6551 37.3851 39.6551 36.1368V33.5233C39.6551 32.2749 38.6395 31.2592 37.3911 31.2592ZM38.3954 36.1368C38.3954 36.6906 37.9449 37.1411 37.3911 37.1411C36.8373 37.1411 36.3868 36.6906 36.3868 36.1368V33.5233C36.3868 32.9695 36.8373 32.519 37.3911 32.519C37.9449 32.519 38.3954 32.9695 38.3954 33.5233V36.1368Z" fill="#443E3E"/>
</svg>
