<svg width="45" height="32" viewBox="0 0 45 32" fill="none" xmlns="http://www.w3.org/2000/svg">
<path d="M0.292335 0.726637L2.56675 0.292366L3.15444 3.34026L3.19304 3.54042L3.39687 3.5429C12.8053 3.65757 17.6599 6.42028 22.3774 9.11598L22.435 9.14892H22.5014H22.5127H22.5791L22.6367 9.11596C27.3599 6.41598 32.2117 3.65193 41.6116 3.53586L41.8158 3.53334L41.8541 3.33271L42.4338 0.292463L44.7077 0.726636L38.945 30.9856H6.05502L0.292335 0.726637ZM36.8205 28.6699H37.0274L37.0661 28.4666L39.251 16.9703L39.3054 16.6845L39.0147 16.6737C30.3673 16.3536 25.7108 13.699 21.2165 11.1232C16.6994 8.53436 12.3603 6.06853 3.93669 5.8657L3.62715 5.85825L3.68509 6.16241L7.93393 28.4667L7.97264 28.6699H8.17951H36.8205ZM39.544 14.3692L39.7514 14.3697L39.7902 14.166L41.3163 6.15821L41.373 5.86077L41.0702 5.86141C35.4954 5.87312 30.0292 7.40412 25.2595 10.29L24.8866 10.5155L25.2696 10.7235C29.6518 13.1036 34.5572 14.3565 39.544 14.3692Z" fill="#443E3E" stroke="white" stroke-width="0.5"/>
<path d="M11.4873 22.5387V20.223H13.803V22.5387H11.4873Z" fill="#443E3E" stroke="white" stroke-width="0.5"/>
<path d="M17.1187 22.5387V20.223H19.4343V22.5387H17.1187Z" fill="#443E3E" stroke="white" stroke-width="0.5"/>
<path d="M22.75 22.5387V20.223H25.0657V22.5387H22.75Z" fill="#443E3E" stroke="white" stroke-width="0.5"/>
</svg>
