<svg width="19" height="19" viewBox="0 0 19 19" fill="none" xmlns="http://www.w3.org/2000/svg">
<g clip-path="url(#clip0)">
<path d="M10.5494 9.50076L18.7824 1.26777C19.0722 0.977904 19.0722 0.507952 18.7824 0.218128C18.4925 -0.0716957 18.0226 -0.0717328 17.7327 0.218128L9.49975 8.45113L1.26679 0.218128C0.976927 -0.0717328 0.506975 -0.0717328 0.217151 0.218128C-0.0726722 0.507989 -0.0727093 0.977941 0.217151 1.26777L8.45011 9.50073L0.217151 17.7337C-0.0727093 18.0236 -0.0727093 18.4935 0.217151 18.7834C0.362063 18.9283 0.552026 19.0007 0.741988 19.0007C0.931951 19.0007 1.12188 18.9283 1.26683 18.7834L9.49975 10.5504L17.7327 18.7834C17.8776 18.9283 18.0676 19.0007 18.2575 19.0007C18.4475 19.0007 18.6374 18.9283 18.7824 18.7834C19.0722 18.4935 19.0722 18.0235 18.7824 17.7337L10.5494 9.50076Z" fill="#999999"/>
</g>
<defs>
<clipPath id="clip0">
<rect width="19" height="19" fill="white"/>
</clipPath>
</defs>
</svg>
