<svg width="36" height="36" viewBox="0 0 36 36" fill="none" xmlns="http://www.w3.org/2000/svg">
<g clip-path="url(#clip0)">
<path d="M0.504205 17.7166C0.570322 27.369 8.44877 35.1402 18.1012 35.0741C27.7535 35.008 35.5248 27.1296 35.4587 17.4772C35.3817 7.82939 27.5097 0.0645009 17.8617 0.119665C8.20934 0.185782 0.438089 8.06423 0.504205 17.7166ZM34.2935 17.4852C34.3552 26.4941 27.1021 33.8473 18.0932 33.909C9.08424 33.9707 1.73106 26.7176 1.66935 17.7086C1.61794 8.70393 8.86514 1.35676 17.8697 1.28481C26.8786 1.22311 34.2318 8.47623 34.2935 17.4852Z" fill="black"/>
<path d="M12.861 8.15662L22.4009 17.5667L12.9908 27.1066C12.7743 27.3338 12.7767 27.6918 12.9963 27.916C13.2214 28.1459 13.5903 28.1498 13.8202 27.9247L23.6393 17.9701C23.7478 17.8601 23.8083 17.7116 23.8072 17.5571C23.8061 17.4025 23.7437 17.2548 23.6337 17.1464L13.6791 7.32721C13.6744 7.32237 13.6696 7.31767 13.6647 7.31304C13.4318 7.09113 13.063 7.09999 12.8411 7.33295C12.6191 7.56591 12.628 7.93464 12.861 8.15662Z" fill="black"/>
</g>
<defs>
<clipPath id="clip0">
<rect width="34.9553" height="34.9553" fill="white" transform="translate(0.62392 35.1938) rotate(-90.3925)"/>
</clipPath>
</defs>
</svg>
