<svg width="28" height="28" viewBox="0 0 28 28" fill="none" xmlns="http://www.w3.org/2000/svg">
<path d="M28 9.60679C28 8.34788 27.2444 6.45148 25.6901 3.80915C24.5861 1.93233 23.4997 0.407531 23.4539 0.343492C23.3 0.127914 23.0514 0 22.7865 0C22.5216 0 22.2729 0.127969 22.119 0.343547C22.0102 0.495742 19.8506 3.53259 18.5532 6.29683C16.5555 2.99316 14.6879 0.371984 14.6676 0.343547C14.5135 0.127914 14.2649 0 14 0C13.7351 0 13.4865 0.127914 13.3325 0.343492C13.3103 0.374555 11.0894 3.49141 8.89973 7.21388C8.66512 7.61272 8.44063 8.00248 8.22418 8.38502C7.09412 6.44022 5.93988 4.81912 5.88104 4.73676C5.72704 4.52118 5.47843 4.39327 5.21352 4.39327C4.94862 4.39327 4.70001 4.52118 4.54601 4.73676C4.50029 4.80074 3.41387 6.32554 2.30984 8.20241C0.755562 10.8447 0 12.7411 0 14C0 16.6062 1.92221 18.7718 4.42329 19.1537C4.81228 24.0967 8.9588 28 14 28C19.2972 28 23.6068 23.6904 23.6068 18.3932C23.6068 17.4384 23.3528 16.2445 22.8484 14.8195C25.6946 14.7862 28 12.4608 28 9.60679ZM1.64062 14C1.64062 13.469 1.91051 12.1191 3.71804 9.04433C4.25955 8.12317 4.80555 7.27732 5.21352 6.66548C5.7697 7.49984 6.58323 8.77051 7.29619 10.0804C5.65802 13.1855 4.70701 15.671 4.45884 17.4927C2.84998 17.1454 1.64062 15.7112 1.64062 14ZM14 26.3594C9.60745 26.3594 6.03384 22.7858 6.03384 18.3932C6.03384 16.993 6.77534 14.0631 10.3078 8.05591C11.7398 5.62073 13.1856 3.44881 14 2.25805C14.8129 3.44662 16.2551 5.61312 17.6862 8.04579C21.2236 14.0594 21.9661 16.9921 21.9661 18.3933C21.9662 22.7858 18.3926 26.3594 14 26.3594ZM22.7865 13.1797C22.5821 13.1797 22.3791 13.1625 22.1799 13.1284C21.5322 11.6344 20.6617 9.93032 19.5865 8.05191C20.3155 6.11127 21.8874 3.62201 22.7868 2.27248C23.1929 2.88148 23.7359 3.72274 24.276 4.641C26.0887 7.72259 26.3594 9.0749 26.3594 9.60679C26.3594 11.5769 24.7565 13.1797 22.7865 13.1797Z" fill="#443E3E"/>
</svg>
