<svg width="35" height="35" viewBox="0 0 35 35" fill="none" xmlns="http://www.w3.org/2000/svg">
<path d="M26.7969 14.6055V12.5781C26.7969 12.5063 26.7827 12.4352 26.7552 12.3688C26.7278 12.3025 26.6875 12.2422 26.6367 12.1914C26.5859 12.1406 26.5256 12.1004 26.4593 12.0729C26.3929 12.0454 26.3218 12.0312 26.25 12.0312H24.6094V10.9375H26.25C26.3218 10.9375 26.3929 10.9234 26.4593 10.8959C26.5256 10.8684 26.5859 10.8281 26.6367 10.7773C26.6875 10.7265 26.7278 10.6663 26.7552 10.5999C26.7827 10.5336 26.7969 10.4624 26.7969 10.3906V8.75C26.7969 8.67818 26.7827 8.60707 26.7552 8.54072C26.7278 8.47437 26.6875 8.41408 26.6367 8.3633C26.5859 8.31251 26.5256 8.27223 26.4593 8.24475C26.3929 8.21727 26.3218 8.20312 26.25 8.20313H21.875C21.8032 8.20312 21.7321 8.21727 21.6657 8.24475C21.5994 8.27223 21.5391 8.31251 21.4883 8.3633C21.4375 8.41408 21.3972 8.47437 21.3698 8.54072C21.3423 8.60707 21.3281 8.67818 21.3281 8.75V10.3906C21.3281 10.4624 21.3423 10.5336 21.3698 10.5999C21.3972 10.6663 21.4375 10.7265 21.4883 10.7773C21.5391 10.8281 21.5994 10.8684 21.6657 10.8959C21.7321 10.9234 21.8032 10.9375 21.875 10.9375H23.5156V12.0312H21.875C21.8032 12.0312 21.7321 12.0454 21.6657 12.0729C21.5994 12.1004 21.5391 12.1406 21.4883 12.1914C21.4375 12.2422 21.3972 12.3025 21.3698 12.3688C21.3423 12.4352 21.3281 12.5063 21.3281 12.5781V14.6055C17.2264 15.7933 14.2188 19.5831 14.2188 24.0625C14.2188 29.4904 18.6346 33.9062 24.0625 33.9062C29.4904 33.9062 33.9062 29.4904 33.9062 24.0625C33.9062 19.5831 30.8986 15.7933 26.7969 14.6055ZM22.4219 9.29688H25.7031V9.84375H22.4219V9.29688ZM22.4219 13.125H25.7031V14.3562C24.6171 14.1729 23.5079 14.1729 22.4219 14.3562V13.125ZM24.0625 32.8125C22.3319 32.8125 20.6402 32.2993 19.2013 31.3379C17.7623 30.3764 16.6408 29.0098 15.9786 27.411C15.3163 25.8121 15.143 24.0528 15.4806 22.3555C15.8182 20.6581 16.6516 19.099 17.8753 17.8753C19.099 16.6516 20.6581 15.8182 22.3555 15.4806C24.0528 15.143 25.8121 15.3163 27.411 15.9786C29.0098 16.6408 30.3764 17.7623 31.3379 19.2013C32.2993 20.6402 32.8125 22.3319 32.8125 24.0625C32.8099 26.3823 31.8872 28.6064 30.2468 30.2468C28.6064 31.8872 26.3823 32.8099 24.0625 32.8125Z" fill="#443E3E"/>
<path d="M24.0625 16.9531C22.6564 16.9531 21.2819 17.3701 20.1127 18.1513C18.9436 18.9325 18.0324 20.0428 17.4943 21.3419C16.9562 22.6409 16.8154 24.0704 17.0897 25.4495C17.364 26.8286 18.0412 28.0953 19.0354 29.0896C20.0297 30.0838 21.2964 30.7609 22.6755 31.0353C24.0546 31.3096 25.4841 31.1688 26.7831 30.6307C28.0822 30.0926 29.1925 29.1814 29.9737 28.0123C30.7549 26.8431 31.1719 25.4686 31.1719 24.0625C31.1697 22.1776 30.42 20.3706 29.0872 19.0378C27.7544 17.705 25.9474 16.9553 24.0625 16.9531ZM27.5304 28.9753L26.997 28.0515L26.0498 28.5984L26.5839 29.5234C25.9611 29.8122 25.2931 29.9914 24.6094 30.053V28.9844H23.5156V30.053C22.8319 29.9914 22.1639 29.8122 21.5411 29.5234L22.0752 28.5984L21.128 28.0515L20.5946 28.9753C20.0348 28.5788 19.5462 28.0902 19.1497 27.5303L20.0735 26.997L19.5266 26.0498L18.6016 26.5839C18.3128 25.9611 18.1336 25.2931 18.072 24.6094H19.1406V23.5156H18.072C18.1336 22.8319 18.3128 22.1639 18.6016 21.5411L19.5266 22.0752L20.0735 21.128L19.1497 20.5946C19.5462 20.0348 20.0348 19.5462 20.5947 19.1497L21.128 20.0735L22.0752 19.5266L21.5411 18.6016C22.1639 18.3128 22.8319 18.1336 23.5156 18.072V19.1406H24.6094V18.072C25.2931 18.1336 25.9611 18.3128 26.5839 18.6016L26.0498 19.5266L26.997 20.0735L27.5304 19.1497C28.0902 19.5462 28.5788 20.0348 28.9753 20.5946L28.0515 21.128L28.5984 22.0752L29.5234 21.5411C29.8122 22.1639 29.9914 22.8319 30.053 23.5156H28.9844V24.6094H30.053C29.9914 25.2931 29.8122 25.9611 29.5234 26.5839L28.5984 26.0498L28.0515 26.997L28.9753 27.5303C28.5788 28.0902 28.0902 28.5788 27.5304 28.9753Z" fill="#443E3E"/>
<path d="M24.6094 22.5159V20.2344H23.5156V22.5159C23.1507 22.6449 22.8432 22.8988 22.6474 23.2326C22.4516 23.5664 22.3801 23.9587 22.4455 24.3402C22.511 24.7216 22.7091 25.0676 23.005 25.3171C23.3009 25.5665 23.6755 25.7034 24.0625 25.7034C24.4495 25.7034 24.8241 25.5665 25.12 25.3171C25.4159 25.0676 25.6141 24.7216 25.6795 24.3402C25.7449 23.9587 25.6734 23.5664 25.4776 23.2326C25.2818 22.8988 24.9743 22.6449 24.6094 22.5159ZM24.0625 24.6094C23.9543 24.6094 23.8486 24.5773 23.7587 24.5172C23.6687 24.4571 23.5986 24.3717 23.5573 24.2718C23.5159 24.1719 23.505 24.0619 23.5261 23.9558C23.5472 23.8497 23.5993 23.7523 23.6758 23.6758C23.7523 23.5993 23.8497 23.5472 23.9558 23.5261C24.0619 23.505 24.1719 23.5159 24.2718 23.5573C24.3717 23.5986 24.4571 23.6687 24.5172 23.7587C24.5773 23.8486 24.6094 23.9543 24.6094 24.0625C24.6092 24.2075 24.5515 24.3465 24.449 24.449C24.3465 24.5515 24.2075 24.6092 24.0625 24.6094Z" fill="#443E3E"/>
<path d="M12.0313 1.09375H6.56251C6.49069 1.09375 6.41958 1.10789 6.35323 1.13538C6.28688 1.16286 6.22659 1.20315 6.17582 1.25393L1.25394 6.17581C1.20316 6.22659 1.16287 6.28687 1.13538 6.35322C1.1079 6.41957 1.09375 6.49068 1.09375 6.5625C1.09375 6.63432 1.1079 6.70543 1.13538 6.77178C1.16287 6.83813 1.20316 6.89841 1.25394 6.94919L5.08207 10.7773C5.18463 10.8799 5.32372 10.9375 5.46876 10.9375C5.61379 10.9375 5.75289 10.8799 5.85545 10.7773L7.10938 9.52342V24.6094C7.10938 24.6812 7.12353 24.7523 7.15101 24.8187C7.17849 24.885 7.21877 24.9453 7.26955 24.9961C7.32034 25.0469 7.38063 25.0871 7.44698 25.1146C7.51333 25.1421 7.58444 25.1563 7.65626 25.1562H13.125V24.0625H8.20313V19.1406H14.7656V18.0469H8.20313V16.4062H16.9531V15.3125H8.20313V13.6719H20.2344V12.5781H8.20313V8.20312C8.20314 8.09496 8.17106 7.98923 8.11097 7.89929C8.05088 7.80936 7.96547 7.73926 7.86554 7.69787C7.76562 7.65648 7.65566 7.64565 7.54957 7.66676C7.44349 7.68786 7.34605 7.73995 7.26957 7.81643L5.46876 9.61721L2.41405 6.5625L6.78905 2.1875H11.4844C11.4844 3.05774 11.8301 3.89234 12.4454 4.50769C13.0608 5.12305 13.8954 5.46875 14.7656 5.46875C15.6359 5.46875 16.4705 5.12305 17.0858 4.50769C17.7012 3.89234 18.0469 3.05774 18.0469 2.1875H22.7422L27.1172 6.5625L26.5216 7.15814L27.295 7.93152L28.2773 6.94919C28.3281 6.89841 28.3684 6.83813 28.3959 6.77178C28.4234 6.70543 28.4375 6.63432 28.4375 6.5625C28.4375 6.49068 28.4234 6.41957 28.3959 6.35322C28.3684 6.28687 28.3281 6.22659 28.2773 6.17581L23.3554 1.25393C23.3047 1.20315 23.2444 1.16286 23.178 1.13538C23.1117 1.10789 23.0406 1.09375 22.9688 1.09375H17.5C17.4282 1.09375 17.3571 1.10789 17.2907 1.13537C17.2244 1.16286 17.1641 1.20314 17.1133 1.25392C17.0625 1.3047 17.0222 1.36499 16.9948 1.43134C16.9673 1.49769 16.9531 1.56881 16.9531 1.64062V2.1875C16.9531 2.76766 16.7227 3.32406 16.3124 3.7343C15.9022 4.14453 15.3458 4.375 14.7656 4.375C14.1855 4.375 13.6291 4.14453 13.2188 3.7343C12.8086 3.32406 12.5781 2.76766 12.5781 2.1875V1.64062C12.5781 1.56881 12.564 1.49769 12.5365 1.43134C12.509 1.36499 12.4687 1.3047 12.418 1.25392C12.3672 1.20314 12.3069 1.16286 12.2405 1.13537C12.1742 1.10789 12.1031 1.09375 12.0313 1.09375Z" fill="#443E3E"/>
</svg>
