<svg width="36" height="36" viewBox="0 0 36 36" fill="none" xmlns="http://www.w3.org/2000/svg">
<g clip-path="url(#clip0)">
<path d="M35.4516 17.4702C35.1692 7.82168 27.1186 0.228919 17.4702 0.511304C7.82168 0.793689 0.22892 8.84429 0.511304 18.4928C0.804474 28.1364 8.84849 35.723 18.4928 35.4516C28.1413 35.1692 35.734 27.1186 35.4516 17.4702ZM1.67598 18.4587C1.41242 9.4534 8.49896 1.93954 17.5043 1.67598C26.5095 1.41242 34.0234 8.49896 34.287 17.5043C34.5401 26.5055 27.4594 34.0133 18.4587 34.287C9.4534 34.5505 1.93954 27.464 1.67598 18.4587Z" fill="black"/>
<path d="M23.3122 27.3048L13.5638 18.1108L22.7578 8.36244C22.9691 8.1304 22.9587 7.77263 22.7341 7.55335C22.5039 7.32855 22.1351 7.33294 21.9103 7.56311L12.3166 17.7352C12.2106 17.8476 12.1535 17.9975 12.1581 18.1519C12.1626 18.3064 12.2284 18.4527 12.3407 18.5587L22.5129 28.1523C22.5177 28.157 22.5226 28.1616 22.5275 28.1661C22.7654 28.3828 23.1338 28.3656 23.3506 28.1278C23.5673 27.8899 23.5501 27.5215 23.3122 27.3048Z" fill="black"/>
</g>
<defs>
<clipPath id="clip0">
<rect width="34.9553" height="34.9553" fill="white" transform="translate(34.9403) rotate(88.3236)"/>
</clipPath>
</defs>
</svg>
