<svg width="43" height="43" viewBox="0 0 43 43" fill="none" xmlns="http://www.w3.org/2000/svg">
<path d="M21.7863 6.34527C23.5357 6.34527 24.9589 4.92207 24.9589 3.17268C24.9589 1.4232 23.5357 0 21.7863 0C20.0369 0 18.6136 1.4232 18.6136 3.17259C18.6135 4.92199 20.0369 6.34527 21.7863 6.34527ZM21.7863 1.25977C22.841 1.25977 23.6991 2.11792 23.6991 3.17259C23.6991 4.22727 22.841 5.08542 21.7863 5.08542C20.7314 5.08542 19.8734 4.22727 19.8734 3.17259C19.8734 2.11792 20.7314 1.25977 21.7863 1.25977ZM8.98613 15.5371C8.98613 17.019 10.1917 18.2246 11.6736 18.2246C13.1555 18.2246 14.3611 17.019 14.3611 15.5371C14.3611 14.0552 13.1555 12.8496 11.6736 12.8496C10.1917 12.8496 8.98613 14.0552 8.98613 15.5371ZM11.6736 14.1094C12.4609 14.1094 13.1014 14.7498 13.1014 15.5371C13.1014 16.3244 12.4609 16.9648 11.6736 16.9648C10.8864 16.9648 10.2459 16.3244 10.2459 15.5371C10.2459 14.7498 10.8864 14.1094 11.6736 14.1094ZM14.9147 37.0848C14.9147 36.7369 14.6327 36.4549 14.2848 36.4549C13.9369 36.4549 13.6549 36.7369 13.6549 37.0848C13.6549 37.4327 13.9369 37.7147 14.2848 37.7147C14.6327 37.7147 14.9147 37.4327 14.9147 37.0848ZM9.87561 35.825C9.87561 36.1729 10.1576 36.4549 10.5055 36.4549C10.8534 36.4549 11.1354 36.1729 11.1354 35.825C11.1354 35.4772 10.8534 35.1952 10.5055 35.1952C10.1575 35.1952 9.87561 35.4772 9.87561 35.825ZM41.4551 20.8411C40.404 20.6077 39.3312 21.2938 39.1048 22.3439L38.8257 23.6104C37.542 23.1861 37.0647 22.6742 35.1012 22.6742C34.9389 22.6742 34.7864 22.6789 34.64 22.6864C34.7241 22.4801 34.7942 22.2676 34.8488 22.05L36.5828 15.1309C36.7232 14.5709 37.0131 14.0592 37.4213 13.651L42.8154 8.25592C43.0614 8.00993 43.0614 7.61108 42.8153 7.36518C42.5691 7.11919 42.1705 7.11919 41.9246 7.36526L36.5305 12.7603C35.9612 13.3296 35.5567 14.0434 35.3608 14.8246L33.6267 21.7438C33.5166 22.1835 33.3206 22.595 33.054 22.9576C32.7052 23.0663 32.41 23.1931 32.131 23.3137C31.4651 23.6015 30.8901 23.85 29.6597 23.85C29.4695 23.85 29.2965 23.8435 29.1349 23.8323L30.7437 22.2235C30.9896 21.9774 30.9898 21.5786 30.7437 21.3327C30.4976 21.0868 30.0989 21.0868 29.8529 21.3327L27.6712 23.5143C27.5088 23.4518 27.3517 23.384 27.1893 23.3138C26.6933 23.0995 26.1485 22.8653 25.3342 22.7488L25.3711 22.712C25.6171 22.4659 25.6171 22.0671 25.3711 21.8212C25.1251 21.5753 24.7263 21.5752 24.4802 21.8212L23.6054 22.696C22.5006 22.7745 21.8404 23.0582 21.249 23.3138C20.7008 23.5508 20.2131 23.7608 19.3712 23.8276L22.929 20.2699C23.175 20.0238 23.175 19.625 22.929 19.3791C22.6829 19.1332 22.2841 19.1331 22.0381 19.3791L17.6577 23.7594C17.2789 23.6911 16.9851 23.5918 16.7231 23.488C16.4001 23.3603 16.0338 23.5183 15.9056 23.8418C15.7776 24.1652 15.9359 24.5312 16.2594 24.6593C16.3729 24.7043 16.4941 24.7493 16.6244 24.7927L16.1251 25.2921C15.6973 25.72 15.0015 25.7198 14.5738 25.2921C14.1518 24.8701 14.1497 24.1606 14.5739 23.7408L20.487 17.8277C20.7329 17.5816 20.733 17.1828 20.487 16.9369C20.2409 16.691 19.8421 16.691 19.5961 16.9369L14.9358 21.5973C14.5109 22.0222 13.8398 22.0588 13.408 21.6806C12.9373 21.2683 12.9078 20.5184 13.3529 20.0776L19.6597 13.7708C20.1592 13.2712 20.7345 12.8609 21.3695 12.551L26.2794 10.1558C27.0705 9.7699 27.787 9.25877 28.4093 8.63653L35.9704 1.07534C36.2164 0.829262 36.2164 0.430504 35.9704 0.184514C35.7243 -0.0613926 35.3256 -0.0613926 35.0796 0.184514L27.5184 7.74571C26.9951 8.2691 26.3924 8.69902 25.7271 9.02362L20.8171 11.4189C20.0564 11.79 19.3672 12.2816 18.7687 12.88L12.4619 19.1868C11.5052 20.131 11.5621 21.7388 12.5778 22.6282C12.8397 22.8574 13.141 23.0173 13.4588 23.1087C13.1562 23.5131 12.9927 24.0023 12.9927 24.5165C12.9927 25.146 13.2378 25.7379 13.683 26.183C13.9699 26.4699 14.3131 26.6673 14.6774 26.775C13.9671 27.7172 14.0964 29.0961 14.9655 29.9053C15.7888 30.672 17.0659 30.7186 17.972 30.0669C18.0816 30.4411 18.284 30.7838 18.5672 31.0672C19.0124 31.5123 19.6042 31.7574 20.2337 31.7574C20.8632 31.7574 21.455 31.5123 21.9002 31.0672L26.866 26.1013C26.9754 26.4554 27.17 26.7889 27.4498 27.0688C28.3523 27.9712 29.8811 27.9809 30.7828 27.0688C30.9506 26.899 33.6324 24.2344 33.7761 24.0651C34.1313 23.9841 34.5503 23.934 35.1012 23.934C36.8844 23.934 37.2126 24.4372 38.5536 24.846L37.0299 31.7616C36.955 32.1013 37.1698 32.4375 37.5096 32.5123C37.8491 32.5876 38.1854 32.3724 38.2602 32.0326L39.918 24.5085C39.9192 24.5029 39.9209 24.4976 39.9219 24.4919C39.922 24.491 39.922 24.4902 39.9222 24.4893L40.3351 22.6151C40.4166 22.2356 40.8028 21.9867 41.1822 22.071C41.5654 22.1562 41.8081 22.5394 41.7231 22.9254L38.166 39.0692C37.8192 40.6418 36.4573 41.7402 34.8538 41.7402H8.14587C6.54244 41.7402 5.18047 40.6418 4.83395 39.0689L1.27679 22.9253C1.1918 22.5392 1.43443 22.156 1.8179 22.0708C2.19591 21.9869 2.58333 22.236 2.66471 22.6149L6.22162 38.7587C6.42276 39.671 7.21398 40.3082 8.14579 40.3082H34.8538C35.7856 40.3082 36.5769 39.671 36.778 38.7586L37.6901 34.6189C37.765 34.2791 37.5502 33.943 37.2104 33.8682C36.8712 33.7931 36.5347 34.0081 36.4598 34.3478L35.5477 38.4875C35.4749 38.8178 35.1895 39.0485 34.8537 39.0485H8.14587C7.8101 39.0485 7.52472 38.8178 7.45191 38.4876L4.30804 24.2186C4.52413 24.2952 4.72409 24.3815 4.92902 24.4701C5.62239 24.7698 6.40832 25.1096 7.89854 25.1096C9.38892 25.1096 10.175 24.7698 10.8686 24.4701C11.1467 24.3499 11.4093 24.2365 11.7125 24.145C12.0456 24.0446 12.2341 23.6931 12.1337 23.36C12.0333 23.0269 11.6817 22.8382 11.3487 22.9388C10.976 23.0513 10.6673 23.1846 10.3689 23.3136C9.70319 23.6014 9.12832 23.8499 7.89854 23.8499C6.669 23.8499 6.09438 23.6015 5.42889 23.3137C5.03039 23.1415 4.5888 22.9505 4.00065 22.8233L3.895 22.3436C3.66841 21.2911 2.59181 20.6086 1.54478 20.841C0.484479 21.0764 -0.187648 22.1329 0.0465848 23.1962L3.60366 39.3401C4.07851 41.495 5.94632 43 8.14587 43H34.8539C37.0534 43 38.9213 41.495 39.3961 39.3401L42.9532 23.1962C43.1874 22.133 42.5153 21.0765 41.4551 20.8411ZM17.3753 28.926C16.9466 29.3547 16.2505 29.3806 15.824 28.9834C15.3753 28.5657 15.3594 27.8349 15.7948 27.4039L18.114 25.0848C18.3187 25.1007 18.5391 25.1097 18.7786 25.1097C20.3278 25.1097 21.1073 24.7523 21.8933 24.408L17.3753 28.926ZM21.0093 30.1763C20.5815 30.6042 19.8857 30.604 19.458 30.1763C19.036 29.7543 19.0339 29.0448 19.4581 28.625L24.1483 23.9348C25.3597 23.92 26.037 24.1863 26.7076 24.4778L21.0093 30.1763ZM29.8919 26.1778C29.4716 26.6021 28.7609 26.5979 28.3406 26.1778C28.0114 25.8486 27.9366 25.3608 28.1142 24.9584C28.5363 25.0496 29.0357 25.1096 29.6597 25.1096C30.2258 25.1096 30.6899 25.0605 31.0863 24.9833L29.8919 26.1778ZM9.11211 8.8816C10.3279 8.8816 11.317 7.89252 11.317 6.67676C11.317 5.461 10.3279 4.47192 9.11211 4.47192C7.89635 4.47192 6.90735 5.461 6.90735 6.67676C6.90735 7.89252 7.89644 8.8816 9.11211 8.8816ZM9.11211 5.73168C9.63323 5.73168 10.0572 6.15563 10.0572 6.67676C10.0572 7.19788 9.63323 7.62183 9.11211 7.62183C8.59099 7.62183 8.16703 7.19788 8.16703 6.67676C8.16703 6.15563 8.59099 5.73168 9.11211 5.73168ZM11.1354 30.786C11.1354 31.1338 11.4174 31.4159 11.7653 31.4159C12.1131 31.4159 12.3951 31.1338 12.3951 30.786C12.3951 30.4381 12.1131 30.1561 11.7653 30.1561C11.4173 30.1561 11.1354 30.4381 11.1354 30.786Z" fill="#443E3E"/>
</svg>
