<svg width="32" height="34" viewBox="0 0 32 34" fill="none" xmlns="http://www.w3.org/2000/svg">
<path d="M6.39549 17.7242L6.18748 17.4123L5.9795 17.7243C5.52659 18.4035 4.94802 18.9669 4.31284 19.3898L4.00029 19.5979L4.31284 19.806C4.97164 20.2446 5.53853 20.8115 5.97715 21.4702L6.18524 21.7828L6.39333 21.4702C6.83145 20.8123 7.40243 20.2415 8.0589 19.8037L8.37083 19.5957L8.05888 19.3877C7.39491 18.945 6.82783 18.3726 6.39549 17.7242ZM6.96875 24.752C6.96875 25.1834 6.61894 25.5332 6.1875 25.5332C5.75601 25.5332 5.40625 25.1834 5.40625 24.752C5.40625 22.3393 3.44387 20.377 1.03125 20.377C0.599813 20.377 0.25 20.0271 0.25 19.5957C0.25 19.1643 0.599813 18.8145 1.03125 18.8145C3.45335 18.8145 5.40625 16.8525 5.40625 14.4395C5.40625 14.008 5.75606 13.6582 6.1875 13.6582C6.61894 13.6582 6.96875 14.008 6.96875 14.4395C6.96875 16.8613 8.93001 18.8145 11.3438 18.8145C11.7752 18.8145 12.125 19.1643 12.125 19.5957C12.125 20.0271 11.7752 20.377 11.3438 20.377C8.92194 20.377 6.96875 22.3382 6.96875 24.752Z" fill="#443E3E" stroke="#999999" stroke-width="0.5"/>
<path d="M11.2482 0.12318C11.3658 0.0602737 11.5014 0.019346 11.6325 0.00645537C11.7132 -0.00153682 24.1317 -0.00475948 24.2548 0.0127073L9.07813 2.23041C10.9555 0.353037 11.0641 0.227114 11.2003 0.149214C11.2151 0.140703 11.2303 0.132766 11.2482 0.12318ZM11.2482 0.12318L11.3664 0.343486C11.3621 0.345786 11.3581 0.347909 11.3544 0.349885C11.3181 0.369298 11.3081 0.37464 11.2817 0.395829C11.2436 0.426307 11.1816 0.48294 11.051 0.610917C10.8977 0.761176 10.6611 0.99839 10.2761 1.38445C10.0123 1.64889 9.67892 1.98317 9.25491 2.40719L9.22208 2.44002L9.17965 2.45887L5.93817 3.89921C4.91271 4.35555 4.25 5.3758 4.25 6.49817V11.345C4.25 11.7765 4.59981 12.1263 5.03125 12.1263C5.46269 12.1263 5.8125 11.7765 5.8125 11.345V6.49817C5.8125 5.99221 6.11104 5.53244 6.573 5.32694L6.5731 5.32689L8.98899 4.25342L9.23144 4.1457L9.32459 4.39411L12.0341 11.6194C12.2203 12.116 12.8389 12.287 13.2537 11.9551L13.2537 11.9551L16.7344 9.17048L17.1406 8.84554V9.36569V30.9388V31.1888H16.8906H7.09375C6.38707 31.1888 5.8125 30.6142 5.8125 29.9075V27.845C5.8125 27.4136 5.46269 27.0638 5.03125 27.0638C4.59981 27.0638 4.25 27.4136 4.25 27.845V29.9075C4.25 31.4754 5.52594 32.7513 7.09375 32.7513H28.75C30.3178 32.7513 31.5937 31.4754 31.5937 29.9075V6.49817C31.5937 5.37584 30.931 4.35556 29.905 3.89889L26.664 2.45881L26.6216 2.43995L26.5888 2.40712L24.662 0.480361L24.6619 0.480284C24.5523 0.370507 24.3997 0.288086 24.2297 0.261714L24.2033 0.261086C24.1773 0.260602 24.1399 0.260124 24.0912 0.259659C23.9942 0.258732 23.8549 0.257877 23.6793 0.257094C23.3281 0.255527 22.8329 0.254252 22.2416 0.253237C21.0589 0.251208 19.4927 0.250224 17.9277 0.250034C16.3627 0.249845 14.7991 0.250451 13.6217 0.251604C13.033 0.252181 12.5409 0.252894 12.1935 0.253712C12.0198 0.254122 11.8825 0.254557 11.7874 0.255014L11.6778 0.25571C11.6594 0.25588 11.6513 0.256066 11.6493 0.256047C11.5532 0.266558 11.4524 0.297461 11.3661 0.343634L11.2482 0.12318ZM24.2376 0.262015C24.2376 0.262021 24.2371 0.261995 24.236 0.261929L24.2376 0.262015ZM17.7451 5.93844L17.9219 6.11522L18.0986 5.93844L21.7965 2.24058L22.2233 1.8138H21.6197H14.224H13.6205L14.0472 2.24058L17.7451 5.93844ZM24.2861 2.31415L24.1094 2.13738L23.9326 2.31415L19.289 6.95774L19.0915 7.15525L19.3096 7.32974L22.4557 9.84657L22.7249 10.0619L22.846 9.73913L25.2072 3.44245L25.2637 3.29172L25.1499 3.17789L24.2861 2.31415ZM12.9978 9.73913L13.1188 10.0619L13.3881 9.84657L16.5341 7.32974L16.7522 7.15525L16.5547 6.95774L11.9112 2.31415L11.7344 2.13738L11.5576 2.31415L10.6939 3.17789L10.58 3.29172L10.6366 3.44245L12.9978 9.73913ZM18.7031 30.9388V31.1888H18.9531H28.75C29.4567 31.1888 30.0312 30.6142 30.0312 29.9075V6.49811C30.0312 5.99204 29.7326 5.53242 29.2703 5.32663L29.2701 5.32657L26.8547 4.25336L26.6123 4.14564L26.5192 4.39404L23.8097 11.6194C23.8097 11.6194 23.8097 11.6194 23.8097 11.6194C23.6232 12.1164 23.0045 12.2867 22.5901 11.9551L22.5901 11.9551L19.1093 9.17048L18.7031 8.84554V9.36569V30.9388Z" fill="#443E3E" stroke="#999999" stroke-width="0.5"/>
<path d="M22.9531 17.0166C22.9531 17.4481 22.6033 17.7979 22.1719 17.7979C21.7404 17.7979 21.3906 17.4481 21.3906 17.0166C21.3906 16.5851 21.7404 16.2354 22.1719 16.2354C22.6033 16.2354 22.9531 16.5851 22.9531 17.0166Z" fill="#443E3E" stroke="#999999" stroke-width="0.5"/>
<path d="M22.9531 25.2666C22.9531 25.6981 22.6033 26.0479 22.1719 26.0479C21.7404 26.0479 21.3906 25.6981 21.3906 25.2666C21.3906 24.8351 21.7404 24.4854 22.1719 24.4854C22.6033 24.4854 22.9531 24.8351 22.9531 25.2666Z" fill="#443E3E" stroke="#999999" stroke-width="0.5"/>
</svg>
