<svg xmlns="http://www.w3.org/2000/svg" width="32" height="33" viewBox="0 0 32 33"><defs><clipPath id="a526a"><path fill="#fff" d="M5.156 24.754a4.13 4.13 0 0 0-4.125-4.125 1.031 1.031 0 0 1 0-2.063 4.123 4.123 0 0 0 4.125-4.125 1.031 1.031 0 0 1 2.063 0 4.123 4.123 0 0 0 4.125 4.125 1.031 1.031 0 0 1 0 2.063 4.123 4.123 0 0 0-4.125 4.125 1.031 1.031 0 1 1-2.063 0zM4.451 19.6a6.24 6.24 0 0 1 1.734 1.733 6.275 6.275 0 0 1 1.735-1.736 6.274 6.274 0 0 1-1.733-1.732A6.273 6.273 0 0 1 4.452 19.6z"/></clipPath><clipPath id="a526b"><path fill="#fff" d="M30.007 3.67a3.098 3.098 0 0 1 1.837 2.828v23.41A3.097 3.097 0 0 1 28.75 33H7.094A3.097 3.097 0 0 1 4 29.908v-2.063a1.031 1.031 0 0 1 2.063 0v2.063c0 .568.462 1.03 1.03 1.03h9.798V9.367L13.41 12.15a1.032 1.032 0 0 1-1.61-.443L9.09 4.482 6.676 5.555a1.033 1.033 0 0 0-.613.943v4.847a1.031 1.031 0 1 1-2.062 0V6.498c0-1.22.72-2.33 1.837-2.827l3.241-1.44C11.161.147 11.067.22 11.248.122c.118-.063.253-.104.384-.117.081-.008 12.5-.01 12.623.007.23.032.435.142.584.29l1.927 1.927zM21.62 2.064h-7.396l3.698 3.698zm-2.154 5.07l3.146 2.517 2.361-6.296-.864-.864zm-3.088 0l-4.644-4.643-.863.864 2.36 6.296zm13.403-.636c0-.407-.24-.777-.612-.943l-2.416-1.073-2.71 7.225a1.032 1.032 0 0 1-1.61.443l-3.48-2.784v21.573h9.797c.569 0 1.031-.463 1.031-1.031z"/></clipPath><clipPath id="a526c"><path fill="#fff" d="M22.171 18.052a1.031 1.031 0 1 0 0-2.062 1.031 1.031 0 0 0 0 2.062z"/></clipPath><clipPath id="a526d"><path fill="#fff" d="M22.171 26.302a1.031 1.031 0 1 0 0-2.062 1.031 1.031 0 0 0 0 2.063z"/></clipPath></defs><g><g><g><path fill="#443e3e" d="M5.156 24.754a4.13 4.13 0 0 0-4.125-4.125 1.031 1.031 0 0 1 0-2.063 4.123 4.123 0 0 0 4.125-4.125 1.031 1.031 0 0 1 2.063 0 4.123 4.123 0 0 0 4.125 4.125 1.031 1.031 0 0 1 0 2.063 4.123 4.123 0 0 0-4.125 4.125 1.031 1.031 0 1 1-2.063 0zM4.451 19.6a6.24 6.24 0 0 1 1.734 1.733 6.275 6.275 0 0 1 1.735-1.736 6.274 6.274 0 0 1-1.733-1.732A6.273 6.273 0 0 1 4.452 19.6z"/><path fill="none" stroke="#999" stroke-miterlimit="20" d="M5.156 24.754a4.13 4.13 0 0 0-4.125-4.125 1.031 1.031 0 0 1 0-2.063 4.123 4.123 0 0 0 4.125-4.125 1.031 1.031 0 0 1 2.063 0 4.123 4.123 0 0 0 4.125 4.125 1.031 1.031 0 0 1 0 2.063 4.123 4.123 0 0 0-4.125 4.125 1.031 1.031 0 1 1-2.063 0zM4.451 19.6a6.24 6.24 0 0 1 1.734 1.733 6.275 6.275 0 0 1 1.735-1.736 6.274 6.274 0 0 1-1.733-1.732A6.273 6.273 0 0 1 4.452 19.6z" clip-path="url(&quot;#a526a&quot;)"/></g><g><path fill="#443e3e" d="M30.007 3.67a3.098 3.098 0 0 1 1.837 2.828v23.41A3.097 3.097 0 0 1 28.75 33H7.094A3.097 3.097 0 0 1 4 29.908v-2.063a1.031 1.031 0 0 1 2.063 0v2.063c0 .568.462 1.03 1.03 1.03h9.798V9.367L13.41 12.15a1.032 1.032 0 0 1-1.61-.443L9.09 4.482 6.676 5.555a1.033 1.033 0 0 0-.613.943v4.847a1.031 1.031 0 1 1-2.062 0V6.498c0-1.22.72-2.33 1.837-2.827l3.241-1.44C11.161.147 11.067.22 11.248.122c.118-.063.253-.104.384-.117.081-.008 12.5-.01 12.623.007.23.032.435.142.584.29l1.927 1.927zM21.62 2.064h-7.396l3.698 3.698zm-2.154 5.07l3.146 2.517 2.361-6.296-.864-.864zm-3.088 0l-4.644-4.643-.863.864 2.36 6.296zm13.403-.636c0-.407-.24-.777-.612-.943l-2.416-1.073-2.71 7.225a1.032 1.032 0 0 1-1.61.443l-3.48-2.784v21.573h9.797c.569 0 1.031-.463 1.031-1.031z"/><path fill="none" stroke="#999" stroke-miterlimit="20" d="M30.007 3.67a3.098 3.098 0 0 1 1.837 2.828v23.41A3.097 3.097 0 0 1 28.75 33H7.094A3.097 3.097 0 0 1 4 29.908v-2.063a1.031 1.031 0 0 1 2.063 0v2.063c0 .568.462 1.03 1.03 1.03h9.798V9.367L13.41 12.15a1.032 1.032 0 0 1-1.61-.443L9.09 4.482 6.676 5.555a1.033 1.033 0 0 0-.613.943v4.847a1.031 1.031 0 1 1-2.062 0V6.498c0-1.22.72-2.33 1.837-2.827l3.241-1.44C11.161.147 11.067.22 11.248.122c.118-.063.253-.104.384-.117.081-.008 12.5-.01 12.623.007.23.032.435.142.584.29l1.927 1.927zM21.62 2.064h-7.396l3.698 3.698zm-2.154 5.07l3.146 2.517 2.361-6.296-.864-.864zm-3.088 0l-4.644-4.643-.863.864 2.36 6.296zm13.403-.636c0-.407-.24-.777-.612-.943l-2.416-1.073-2.71 7.225a1.032 1.032 0 0 1-1.61.443l-3.48-2.784v21.573h9.797c.569 0 1.031-.463 1.031-1.031z" clip-path="url(&quot;#a526b&quot;)"/></g><g><path fill="#443e3e" d="M22.171 18.052a1.031 1.031 0 1 0 0-2.062 1.031 1.031 0 0 0 0 2.062z"/><path fill="none" stroke="#999" stroke-miterlimit="20" d="M22.171 18.052a1.031 1.031 0 1 0 0-2.062 1.031 1.031 0 0 0 0 2.062z" clip-path="url(&quot;#a526c&quot;)"/></g><g><path fill="#443e3e" d="M22.171 26.302a1.031 1.031 0 1 0 0-2.062 1.031 1.031 0 0 0 0 2.063z"/><path fill="none" stroke="#999" stroke-miterlimit="20" d="M22.171 26.302a1.031 1.031 0 1 0 0-2.062 1.031 1.031 0 0 0 0 2.063z" clip-path="url(&quot;#a526d&quot;)"/></g></g></g></svg>