<svg width="43" height="43" viewBox="0 0 43 43" fill="none" xmlns="http://www.w3.org/2000/svg">
<path d="M21.5 12.7656C15.2019 12.7656 10.0781 17.8894 10.0781 24.1875C10.0781 30.4856 15.2019 35.6094 21.5 35.6094C27.7981 35.6094 32.9219 30.4856 32.9219 24.1875C32.9219 17.8894 27.7981 12.7656 21.5 12.7656ZM28.8906 24.1875C28.8906 25.6492 28.4572 27.0781 27.6451 28.2935C26.833 29.5089 25.6787 30.4562 24.3283 31.0155C22.9778 31.5749 21.4918 31.7213 20.0582 31.4361C18.6245 31.1509 17.3076 30.4471 16.274 29.4135C15.2404 28.3799 14.5366 27.063 14.2514 25.6293C13.9662 24.1957 14.1126 22.7097 14.672 21.3592C15.2313 20.0088 16.1786 18.8545 17.394 18.0424C18.6094 17.2303 20.0383 16.7969 21.5 16.7969C23.4594 16.7991 25.338 17.5785 26.7235 18.964C28.109 20.3495 28.8884 22.2281 28.8906 24.1875ZM29.7997 21.4659L31.1266 21.2004C31.7292 23.1462 31.7292 25.2288 31.1266 27.1746L29.7997 26.9091C30.3793 25.141 30.3793 23.234 29.7997 21.4659ZM21.5 34.2656C19.6935 34.2659 17.9202 33.7806 16.3656 32.8605C14.811 31.9405 13.5323 30.6195 12.6633 29.0358C11.7942 27.4521 11.3669 25.6639 11.4258 23.8584C11.4848 22.0529 12.028 20.2965 12.9986 18.7729C13.9691 17.2493 15.3313 16.0146 16.9427 15.1979C18.554 14.3813 20.3552 14.0128 22.1578 14.131C23.9604 14.2491 25.6981 14.8496 27.189 15.8696C28.68 16.8896 29.8694 18.2916 30.6327 19.9288L29.2705 20.2015C28.3761 18.4576 26.9211 17.0652 25.1396 16.2482C23.3581 15.4312 21.3535 15.2371 19.4484 15.6972C17.5432 16.1572 15.8482 17.2447 14.6358 18.7847C13.4235 20.3246 12.7643 22.2276 12.7643 24.1875C12.7643 26.1474 13.4235 28.0504 14.6358 29.5903C15.8482 31.1303 17.5432 32.2178 19.4484 32.6778C21.3535 33.1379 23.3581 32.9438 25.1396 32.1268C26.9211 31.3098 28.3761 29.9174 29.2705 28.1735L30.6327 28.4462C29.8208 30.1838 28.5306 31.6541 26.9131 32.6847C25.2956 33.7154 23.4179 34.2638 21.5 34.2656Z" fill="#443E3E"/>
<path d="M36.7852 1.34375H6.21484C5.63592 1.34442 5.08091 1.57469 4.67155 1.98405C4.26219 2.39341 4.03192 2.94842 4.03125 3.52734V40.9844C4.03125 41.1626 4.10204 41.3335 4.22804 41.4595C4.35404 41.5855 4.52493 41.6562 4.70312 41.6562H38.2969C38.4751 41.6562 38.646 41.5855 38.772 41.4595C38.898 41.3335 38.9688 41.1626 38.9688 40.9844V3.52734C38.9681 2.94842 38.7378 2.39341 38.3285 1.98405C37.9191 1.57469 37.3641 1.34442 36.7852 1.34375ZM5.375 10.75H37.625V37.625H5.375V10.75ZM37.625 3.52734V9.40625H17.4688V2.6875H36.7852C37.0078 2.68774 37.2213 2.77631 37.3787 2.93375C37.5362 3.0912 37.6248 3.30468 37.625 3.52734ZM6.21484 2.6875H16.125V9.40625H5.375V3.52734C5.37524 3.30468 5.46381 3.0912 5.62125 2.93375C5.7787 2.77631 5.99218 2.68774 6.21484 2.6875ZM37.625 40.3125H5.375V38.9688H37.625V40.3125Z" fill="#443E3E"/>
<path d="M7.39062 8.0625H14.1094C14.2876 8.0625 14.4585 7.99171 14.5845 7.86571C14.7105 7.73971 14.7812 7.56882 14.7812 7.39062V6.04688C14.7807 5.51248 14.5681 5.00015 14.1902 4.62228C13.8124 4.2444 13.3 4.03185 12.7656 4.03125H8.73438C8.19998 4.03185 7.68765 4.2444 7.30978 4.62228C6.9319 5.00015 6.71935 5.51248 6.71875 6.04688V7.39062C6.71875 7.56882 6.78954 7.73971 6.91554 7.86571C7.04154 7.99171 7.21243 8.0625 7.39062 8.0625ZM8.0625 6.04688C8.0627 5.86874 8.13355 5.69797 8.25951 5.57201C8.38547 5.44605 8.55624 5.3752 8.73438 5.375H12.7656C12.9438 5.3752 13.1145 5.44605 13.2405 5.57201C13.3664 5.69797 13.4373 5.86874 13.4375 6.04688V6.71875H8.0625V6.04688Z" fill="#443E3E"/>
<path d="M19.4844 8.0625H27.5469C27.7251 8.0625 27.896 7.99171 28.022 7.86571C28.148 7.73971 28.2188 7.56882 28.2188 7.39062V4.70312C28.2188 4.52493 28.148 4.35404 28.022 4.22804C27.896 4.10204 27.7251 4.03125 27.5469 4.03125H19.4844C19.3062 4.03125 19.1353 4.10204 19.0093 4.22804C18.8833 4.35404 18.8125 4.52493 18.8125 4.70312V7.39062C18.8125 7.56882 18.8833 7.73971 19.0093 7.86571C19.1353 7.99171 19.3062 8.0625 19.4844 8.0625ZM20.1562 5.375H26.875V6.71875H20.1562V5.375Z" fill="#443E3E"/>
<path d="M22.1719 20.8281C22.1719 20.6499 22.1011 20.479 21.9751 20.353C21.8491 20.227 21.6782 20.1562 21.5 20.1562C20.4312 20.1575 19.4066 20.5826 18.6508 21.3383C17.8951 22.0941 17.47 23.1187 17.4688 24.1875C17.4688 24.3657 17.5395 24.5366 17.6655 24.6626C17.7915 24.7886 17.9624 24.8594 18.1406 24.8594C18.3188 24.8594 18.4897 24.7886 18.6157 24.6626C18.7417 24.5366 18.8125 24.3657 18.8125 24.1875C18.8133 23.475 19.0967 22.7919 19.6005 22.288C20.1044 21.7842 20.7875 21.5008 21.5 21.5C21.6782 21.5 21.8491 21.4292 21.9751 21.3032C22.1011 21.1772 22.1719 21.0063 22.1719 20.8281Z" fill="#443E3E"/>
<path d="M24.8594 23.5156C24.6812 23.5156 24.5103 23.5864 24.3843 23.7124C24.2583 23.8384 24.1875 24.0093 24.1875 24.1875C24.1867 24.9 23.9033 25.5831 23.3995 26.087C22.8956 26.5908 22.2125 26.8742 21.5 26.875C21.3218 26.875 21.1509 26.9458 21.0249 27.0718C20.8989 27.1978 20.8281 27.3687 20.8281 27.5469C20.8281 27.7251 20.8989 27.896 21.0249 28.022C21.1509 28.148 21.3218 28.2188 21.5 28.2188C22.5688 28.2175 23.5934 27.7924 24.3492 27.0367C25.1049 26.2809 25.53 25.2563 25.5312 24.1875C25.5312 24.0093 25.4605 23.8384 25.3345 23.7124C25.2085 23.5864 25.0376 23.5156 24.8594 23.5156Z" fill="#443E3E"/>
<path d="M30.2344 6.71875C30.6054 6.71875 30.9062 6.41794 30.9062 6.04688C30.9062 5.67581 30.6054 5.375 30.2344 5.375C29.8633 5.375 29.5625 5.67581 29.5625 6.04688C29.5625 6.41794 29.8633 6.71875 30.2344 6.71875Z" fill="#443E3E"/>
<path d="M32.9219 6.71875C33.2929 6.71875 33.5938 6.41794 33.5938 6.04688C33.5938 5.67581 33.2929 5.375 32.9219 5.375C32.5508 5.375 32.25 5.67581 32.25 6.04688C32.25 6.41794 32.5508 6.71875 32.9219 6.71875Z" fill="#443E3E"/>
<path d="M35.6094 6.71875C35.9804 6.71875 36.2812 6.41794 36.2812 6.04688C36.2812 5.67581 35.9804 5.375 35.6094 5.375C35.2383 5.375 34.9375 5.67581 34.9375 6.04688C34.9375 6.41794 35.2383 6.71875 35.6094 6.71875Z" fill="#443E3E"/>
</svg>
