<svg width="14" height="8" viewBox="0 0 14 8" fill="none" xmlns="http://www.w3.org/2000/svg">
<path d="M13.8752 7.12485C13.8376 7.06184 13.6048 6.55606 12.4847 5.51648C11.3122 4.4279 11.4697 4.60466 12.882 2.7224C13.7422 1.57607 14.0861 0.876014 13.9785 0.576742C13.8761 0.291471 13.2434 0.366726 13.2434 0.366726L11.1398 0.378977C11.1398 0.378977 10.984 0.357975 10.8676 0.427106C10.7547 0.495361 10.6821 0.652872 10.6821 0.652872C10.6821 0.652872 10.3487 1.54019 9.90417 2.29449C8.96698 3.88623 8.59158 3.97024 8.43844 3.87136C8.08229 3.64122 8.17155 2.94554 8.17155 2.452C8.17155 0.909266 8.40519 0.266094 7.71564 0.0998314C7.48637 0.0447024 7.31836 0.00794971 6.73294 0.00182426C5.98213 -0.00605132 5.34596 0.00444945 4.98631 0.180337C4.74654 0.297596 4.56191 0.55924 4.67479 0.574117C4.81392 0.592493 5.12895 0.658998 5.29608 0.886514C5.51223 1.17966 5.50435 1.83946 5.50435 1.83946C5.50435 1.83946 5.62861 3.65522 5.2147 3.88098C4.93031 4.03587 4.5409 3.71997 3.70522 2.27524C3.27731 1.53581 2.95354 0.717627 2.95354 0.717627C2.95354 0.717627 2.89141 0.565366 2.78027 0.483985C2.64551 0.385103 2.4565 0.3536 2.4565 0.3536L0.456104 0.365851C0.456104 0.365851 0.155957 0.374602 0.0456987 0.504986C-0.0523085 0.62137 0.0378231 0.861137 0.0378231 0.861137C0.0378231 0.861137 1.60419 4.52503 3.37707 6.37229C5.00381 8.06554 6.8502 7.95441 6.8502 7.95441H7.68676C7.68676 7.95441 7.93965 7.92641 8.06829 7.78727C8.1873 7.65951 8.18292 7.41974 8.18292 7.41974C8.18292 7.41974 8.1663 6.29704 8.68783 6.13165C9.2015 5.96889 9.86129 7.21673 10.5605 7.69714C11.089 8.06029 11.4907 7.98066 11.4907 7.98066L13.3607 7.95441C13.3607 7.95441 14.339 7.89403 13.8752 7.12485Z" fill="white"/>
</svg>
