<svg xmlns="http://www.w3.org/2000/svg" width="15" height="15" viewBox="0 0 15 15"><g><g><path fill="#443e3e" d="M10.78 15c-.484 0-.964-.086-1.433-.256a15.29 15.29 0 0 1-5.552-3.539A15.288 15.288 0 0 1 .256 5.653a4.149 4.149 0 0 1-.212-2.039A4.247 4.247 0 0 1 2.231.5c.617-.332 1.29-.5 2-.5.221 0 .412.154.458.37l.736 3.434a.469.469 0 0 1-.127.43L4.041 5.49a12.339 12.339 0 0 0 5.468 5.468l1.257-1.257a.47.47 0 0 1 .43-.127l3.433.736c.217.046.37.237.37.458 0 .71-.167 1.383-.499 2a4.264 4.264 0 0 1-3.114 2.186c-.202.03-.404.045-.606.045zM3.856.958a3.247 3.247 0 0 0-2.321 1.383 3.23 3.23 0 0 0-.398 2.992 14.217 14.217 0 0 0 8.53 8.53 3.23 3.23 0 0 0 2.992-.398 3.247 3.247 0 0 0 1.383-2.321l-2.793-.599-1.313 1.313a.469.469 0 0 1-.53.093 13.273 13.273 0 0 1-6.357-6.356.469.469 0 0 1 .093-.531l1.313-1.313z"/></g></g></svg>